<?xml version="1.0" encoding="UTF-8" standalone="no"?>
<!-- Created with Inkscape (http://www.inkscape.org/) -->

<svg
   width="63.944012"
   height="63.944012"
   viewBox="0 0 16.91852 16.91852"
   version="1.1"
   id="svg1161"
   inkscape:version="1.1 (c68e22c387, 2021-05-23)"
   xmlns:inkscape="http://www.inkscape.org/namespaces/inkscape"
   xmlns:sodipodi="http://sodipodi.sourceforge.net/DTD/sodipodi-0.dtd"
   xmlns="http://www.w3.org/2000/svg"
   xmlns:svg="http://www.w3.org/2000/svg">
  <sodipodi:namedview
     id="namedview1163"
     pagecolor="#ffffff"
     bordercolor="#666666"
     borderopacity="1.0"
     inkscape:pageshadow="2"
     inkscape:pageopacity="0.0"
     inkscape:pagecheckerboard="0"
     inkscape:document-units="mm"
     showgrid="false"
     units="px"
     fit-margin-top="0"
     fit-margin-left="0"
     fit-margin-right="0"
     fit-margin-bottom="0"
     inkscape:zoom="2.8934905"
     inkscape:cx="38.361972"
     inkscape:cy="-43.373221"
     inkscape:window-width="2400"
     inkscape:window-height="1271"
     inkscape:window-x="2391"
     inkscape:window-y="-9"
     inkscape:window-maximized="1"
     inkscape:current-layer="layer1" />
  <defs
     id="defs1158">
    <clipPath
       clipPathUnits="userSpaceOnUse"
       id="clipPath353862">
      <rect
         style="fill:none;fill-opacity:1;stroke:#e2c015;stroke-width:0.49;stroke-linecap:round;stroke-linejoin:round;stroke-miterlimit:4;stroke-dasharray:none;stroke-opacity:0;paint-order:markers stroke fill"
         id="rect353864"
         width="37.187374"
         height="37.187374"
         x="180.56668"
         y="183.06766" />
    </clipPath>
    <clipPath
       clipPathUnits="userSpaceOnUse"
       id="clipPath353858">
      <rect
         style="fill:none;fill-opacity:1;stroke:#e2c015;stroke-width:0.49;stroke-linecap:round;stroke-linejoin:round;stroke-miterlimit:4;stroke-dasharray:none;stroke-opacity:0;paint-order:markers stroke fill"
         id="rect353860"
         width="37.187374"
         height="37.187374"
         x="180.56668"
         y="183.06766" />
    </clipPath>
    <clipPath
       clipPathUnits="userSpaceOnUse"
       id="clipPath353854">
      <rect
         style="fill:none;fill-opacity:1;stroke:#e2c015;stroke-width:0.49;stroke-linecap:round;stroke-linejoin:round;stroke-miterlimit:4;stroke-dasharray:none;stroke-opacity:0;paint-order:markers stroke fill"
         id="rect353856"
         width="37.187374"
         height="37.187374"
         x="180.56668"
         y="183.06766" />
    </clipPath>
    <clipPath
       clipPathUnits="userSpaceOnUse"
       id="clipPath353850">
      <rect
         style="fill:none;fill-opacity:1;stroke:#e2c015;stroke-width:0.49;stroke-linecap:round;stroke-linejoin:round;stroke-miterlimit:4;stroke-dasharray:none;stroke-opacity:0;paint-order:markers stroke fill"
         id="rect353852"
         width="37.187374"
         height="37.187374"
         x="180.56668"
         y="183.06766" />
    </clipPath>
    <clipPath
       clipPathUnits="userSpaceOnUse"
       id="clipPath371594">
      <rect
         style="fill:#85127e;fill-opacity:1;stroke:none;stroke-width:0.989769;stroke-linecap:round;stroke-linejoin:round;stroke-miterlimit:4;stroke-dasharray:none;stroke-opacity:1;paint-order:markers stroke fill"
         id="rect371596"
         width="37.187374"
         height="37.187374"
         x="217.75404"
         y="145.88028" />
    </clipPath>
    <clipPath
       clipPathUnits="userSpaceOnUse"
       id="clipPath353862-9">
      <rect
         style="fill:none;fill-opacity:1;stroke:#e2c015;stroke-width:0.49;stroke-linecap:round;stroke-linejoin:round;stroke-miterlimit:4;stroke-dasharray:none;stroke-opacity:0;paint-order:markers stroke fill"
         id="rect353864-8"
         width="37.187374"
         height="37.187374"
         x="180.56668"
         y="183.06766" />
    </clipPath>
    <clipPath
       clipPathUnits="userSpaceOnUse"
       id="clipPath353858-3">
      <rect
         style="fill:none;fill-opacity:1;stroke:#e2c015;stroke-width:0.49;stroke-linecap:round;stroke-linejoin:round;stroke-miterlimit:4;stroke-dasharray:none;stroke-opacity:0;paint-order:markers stroke fill"
         id="rect353860-6"
         width="37.187374"
         height="37.187374"
         x="180.56668"
         y="183.06766" />
    </clipPath>
    <clipPath
       clipPathUnits="userSpaceOnUse"
       id="clipPath353854-5">
      <rect
         style="fill:none;fill-opacity:1;stroke:#e2c015;stroke-width:0.49;stroke-linecap:round;stroke-linejoin:round;stroke-miterlimit:4;stroke-dasharray:none;stroke-opacity:0;paint-order:markers stroke fill"
         id="rect353856-3"
         width="37.187374"
         height="37.187374"
         x="180.56668"
         y="183.06766" />
    </clipPath>
    <clipPath
       clipPathUnits="userSpaceOnUse"
       id="clipPath353850-1">
      <rect
         style="fill:none;fill-opacity:1;stroke:#e2c015;stroke-width:0.49;stroke-linecap:round;stroke-linejoin:round;stroke-miterlimit:4;stroke-dasharray:none;stroke-opacity:0;paint-order:markers stroke fill"
         id="rect353852-3"
         width="37.187374"
         height="37.187374"
         x="180.56668"
         y="183.06766" />
    </clipPath>
    <clipPath
       clipPathUnits="userSpaceOnUse"
       id="clipPath371594-4">
      <rect
         style="fill:#85127e;fill-opacity:1;stroke:none;stroke-width:0.989769;stroke-linecap:round;stroke-linejoin:round;stroke-miterlimit:4;stroke-dasharray:none;stroke-opacity:1;paint-order:markers stroke fill"
         id="rect371596-8"
         width="37.187374"
         height="37.187374"
         x="217.75404"
         y="145.88028" />
    </clipPath>
    <clipPath
       clipPathUnits="userSpaceOnUse"
       id="clipPath353862-9-3">
      <rect
         style="fill:none;fill-opacity:1;stroke:#e2c015;stroke-width:0.49;stroke-linecap:round;stroke-linejoin:round;stroke-miterlimit:4;stroke-dasharray:none;stroke-opacity:0;paint-order:markers stroke fill"
         id="rect353864-8-8"
         width="37.187374"
         height="37.187374"
         x="180.56668"
         y="183.06766" />
    </clipPath>
    <clipPath
       clipPathUnits="userSpaceOnUse"
       id="clipPath353858-3-6">
      <rect
         style="fill:none;fill-opacity:1;stroke:#e2c015;stroke-width:0.49;stroke-linecap:round;stroke-linejoin:round;stroke-miterlimit:4;stroke-dasharray:none;stroke-opacity:0;paint-order:markers stroke fill"
         id="rect353860-6-3"
         width="37.187374"
         height="37.187374"
         x="180.56668"
         y="183.06766" />
    </clipPath>
    <clipPath
       clipPathUnits="userSpaceOnUse"
       id="clipPath353854-5-8">
      <rect
         style="fill:none;fill-opacity:1;stroke:#e2c015;stroke-width:0.49;stroke-linecap:round;stroke-linejoin:round;stroke-miterlimit:4;stroke-dasharray:none;stroke-opacity:0;paint-order:markers stroke fill"
         id="rect353856-3-2"
         width="37.187374"
         height="37.187374"
         x="180.56668"
         y="183.06766" />
    </clipPath>
    <clipPath
       clipPathUnits="userSpaceOnUse"
       id="clipPath353850-1-7">
      <rect
         style="fill:none;fill-opacity:1;stroke:#e2c015;stroke-width:0.49;stroke-linecap:round;stroke-linejoin:round;stroke-miterlimit:4;stroke-dasharray:none;stroke-opacity:0;paint-order:markers stroke fill"
         id="rect353852-3-3"
         width="37.187374"
         height="37.187374"
         x="180.56668"
         y="183.06766" />
    </clipPath>
    <clipPath
       clipPathUnits="userSpaceOnUse"
       id="clipPath371594-4-2">
      <rect
         style="fill:#85127e;fill-opacity:1;stroke:none;stroke-width:0.989769;stroke-linecap:round;stroke-linejoin:round;stroke-miterlimit:4;stroke-dasharray:none;stroke-opacity:1;paint-order:markers stroke fill"
         id="rect371596-8-0"
         width="37.187374"
         height="37.187374"
         x="217.75404"
         y="145.88028" />
    </clipPath>
  </defs>
  <g
     inkscape:label="Calque 1"
     inkscape:groupmode="layer"
     id="layer1"
     transform="translate(-4.9825511,-4.9825504)">
    <g
       id="g3531"
       transform="translate(-12.480702,-0.22762379)">
      <rect
         style="fill:#85127e;fill-opacity:1;stroke:none;stroke-width:0.450299;stroke-linecap:round;stroke-linejoin:round;stroke-miterlimit:4;stroke-dasharray:none;stroke-opacity:1;paint-order:markers stroke fill"
         id="rect291252-4-6-3-53"
         width="16.91852"
         height="16.91852"
         x="17.463253"
         y="5.2101741" />
      <path
         style="fill:#ffffff;stroke-width:0.0144387"
         d="m 25.71947,17.078594 c -0.600975,-0.07146 -1.055441,-0.255785 -1.472751,-0.597316 -0.13408,-0.109733 -0.356311,-0.341658 -0.456219,-0.476115 -0.6588,-0.886636 -0.708258,-2.063366 -0.126659,-3.013574 0.103793,-0.16959 0.2285,-0.324022 0.396228,-0.4907 l 0.162719,-0.161699 0.0062,-0.589115 c 0.0057,-0.531862 0.0091,-0.601051 0.03589,-0.711854 0.124798,-0.516132 0.454994,-0.933783 0.923305,-1.167847 0.52175,-0.260778 1.179407,-0.222257 1.674793,0.0981 0.447764,0.289572 0.732979,0.761971 0.783838,1.298271 0.008,0.08476 0.01461,0.363264 0.01465,0.618908 l 1.3e-5,0.464791 0.08761,0.07666 c 0.122801,0.107434 0.319769,0.339906 0.428144,0.505303 0.451823,0.689592 0.563777,1.536251 0.306078,2.314718 -0.331952,1.002793 -1.22644,1.719717 -2.27807,1.825849 -0.14073,0.01417 -0.389376,0.01707 -0.48578,0.0058 z m 0.512897,-0.444487 c 1.292085,-0.172031 2.173216,-1.40622 1.911349,-2.677198 -0.088,-0.427113 -0.281488,-0.791917 -0.589715,-1.111842 -0.753298,-0.781895 -1.941517,-0.913298 -2.84975,-0.315146 -0.465126,0.306327 -0.80186,0.776091 -0.939797,1.311064 -0.238473,0.9249 0.130709,1.897455 0.921062,2.426417 0.177837,0.119023 0.292435,0.178235 0.478061,0.247019 0.339809,0.125915 0.710345,0.167412 1.06879,0.119686 z m -0.527332,-0.427868 c -1.132225,-0.155914 -1.845542,-1.298406 -1.484699,-2.377976 0.189597,-0.567245 0.674172,-1.023605 1.246458,-1.173876 0.172031,-0.04516 0.281975,-0.05836 0.483324,-0.05811 0.291248,3.99e-4 0.541995,0.05868 0.793885,0.18456 0.517855,0.258716 0.871631,0.728854 0.982034,1.305009 0.02989,0.155881 0.03066,0.470575 0.0018,0.634381 -0.128234,0.722979 -0.68051,1.295127 -1.408977,1.459679 -0.145294,0.03286 -0.466432,0.04657 -0.613649,0.02635 z m 0.577549,-0.459689 c 0.06353,-0.01636 0.181836,-0.06248 0.2629,-0.102442 0.377625,-0.186145 0.629004,-0.496561 0.736423,-0.909394 0.04536,-0.174305 0.05058,-0.436964 0.0122,-0.613607 -0.113893,-0.52428 -0.517851,-0.934723 -1.047631,-1.064458 -0.154156,-0.03775 -0.432055,-0.04058 -0.588268,-0.0058 -0.42201,0.09326 -0.76585,0.362737 -0.956598,0.749712 -0.108766,0.220646 -0.134412,0.333395 -0.135336,0.59499 -9.01e-4,0.238033 0.0142,0.323146 0.09331,0.5283 0.09575,0.248268 0.319108,0.510978 0.561031,0.659864 0.136913,0.08425 0.3157,0.153292 0.475672,0.183677 0.151067,0.02867 0.433838,0.01881 0.586293,-0.02055 z m -0.555893,-0.727978 v -0.235771 l -0.07545,-0.03498 c -0.101196,-0.04689 -0.241972,-0.187407 -0.289765,-0.289257 -0.158592,-0.337942 -0.0298,-0.709677 0.302977,-0.874557 0.175316,-0.08686 0.400413,-0.08281 0.583304,0.0105 0.09912,0.05057 0.211744,0.168559 0.265953,0.27862 0.09605,0.195028 0.09853,0.388478 0.0074,0.579028 -0.05144,0.107563 -0.17664,0.235707 -0.282808,0.289417 l -0.07847,0.03968 v 0.236511 0.236519 h -0.216586 -0.216575 z m 0.32995,-0.6701 c 0.09791,-0.0731 0.126132,-0.176579 0.07532,-0.27618 -0.0393,-0.07709 -0.104034,-0.117328 -0.188687,-0.117328 -0.226307,0 -0.299341,0.29441 -0.09955,0.401309 0.07351,0.03936 0.153728,0.0364 0.212918,-0.0079 z m -0.942995,-2.491923 c 0.540161,-0.173808 1.132569,-0.172359 1.665629,0.0045 0.139775,0.04625 0.216876,0.07883 0.439839,0.185836 0.0069,0.0032 0.0094,-0.179691 0.0057,-0.410888 -0.0077,-0.471587 -0.01984,-0.545241 -0.125895,-0.767131 -0.107141,-0.22413 -0.247709,-0.387703 -0.448702,-0.522154 -0.43231,-0.28916 -0.999824,-0.287755 -1.428794,0.0039 -0.162892,0.11061 -0.34097,0.315261 -0.429436,0.493495 -0.112364,0.22638 -0.133424,0.357705 -0.133564,0.832836 l -1.15e-4,0.370788 0.147997,-0.06954 c 0.0814,-0.03826 0.219737,-0.09262 0.307421,-0.120832 z"
         id="path397355-8" />
    </g>
  </g>
</svg>
