<?xml version="1.0" encoding="UTF-8" standalone="no"?>
<!-- Created with Inkscape (http://www.inkscape.org/) -->

<svg
   width="63.944012"
   height="63.944012"
   viewBox="0 0 16.91852 16.91852"
   version="1.1"
   id="svg1161"
   inkscape:version="1.1 (c68e22c387, 2021-05-23)"
   xmlns:inkscape="http://www.inkscape.org/namespaces/inkscape"
   xmlns:sodipodi="http://sodipodi.sourceforge.net/DTD/sodipodi-0.dtd"
   xmlns="http://www.w3.org/2000/svg"
   xmlns:svg="http://www.w3.org/2000/svg">
  <sodipodi:namedview
     id="namedview1163"
     pagecolor="#ffffff"
     bordercolor="#666666"
     borderopacity="1.0"
     inkscape:pageshadow="2"
     inkscape:pageopacity="0.0"
     inkscape:pagecheckerboard="0"
     inkscape:document-units="mm"
     showgrid="false"
     units="px"
     fit-margin-top="0"
     fit-margin-left="0"
     fit-margin-right="0"
     fit-margin-bottom="0"
     inkscape:zoom="2.8934905"
     inkscape:cx="-31.104302"
     inkscape:cy="-71.021489"
     inkscape:window-width="2400"
     inkscape:window-height="1271"
     inkscape:window-x="2391"
     inkscape:window-y="-9"
     inkscape:window-maximized="1"
     inkscape:current-layer="layer1" />
  <defs
     id="defs1158">
    <clipPath
       clipPathUnits="userSpaceOnUse"
       id="clipPath353862">
      <rect
         style="fill:none;fill-opacity:1;stroke:#e2c015;stroke-width:0.49;stroke-linecap:round;stroke-linejoin:round;stroke-miterlimit:4;stroke-dasharray:none;stroke-opacity:0;paint-order:markers stroke fill"
         id="rect353864"
         width="37.187374"
         height="37.187374"
         x="180.56668"
         y="183.06766" />
    </clipPath>
    <clipPath
       clipPathUnits="userSpaceOnUse"
       id="clipPath353858">
      <rect
         style="fill:none;fill-opacity:1;stroke:#e2c015;stroke-width:0.49;stroke-linecap:round;stroke-linejoin:round;stroke-miterlimit:4;stroke-dasharray:none;stroke-opacity:0;paint-order:markers stroke fill"
         id="rect353860"
         width="37.187374"
         height="37.187374"
         x="180.56668"
         y="183.06766" />
    </clipPath>
    <clipPath
       clipPathUnits="userSpaceOnUse"
       id="clipPath353854">
      <rect
         style="fill:none;fill-opacity:1;stroke:#e2c015;stroke-width:0.49;stroke-linecap:round;stroke-linejoin:round;stroke-miterlimit:4;stroke-dasharray:none;stroke-opacity:0;paint-order:markers stroke fill"
         id="rect353856"
         width="37.187374"
         height="37.187374"
         x="180.56668"
         y="183.06766" />
    </clipPath>
    <clipPath
       clipPathUnits="userSpaceOnUse"
       id="clipPath353850">
      <rect
         style="fill:none;fill-opacity:1;stroke:#e2c015;stroke-width:0.49;stroke-linecap:round;stroke-linejoin:round;stroke-miterlimit:4;stroke-dasharray:none;stroke-opacity:0;paint-order:markers stroke fill"
         id="rect353852"
         width="37.187374"
         height="37.187374"
         x="180.56668"
         y="183.06766" />
    </clipPath>
    <clipPath
       clipPathUnits="userSpaceOnUse"
       id="clipPath371594">
      <rect
         style="fill:#85127e;fill-opacity:1;stroke:none;stroke-width:0.989769;stroke-linecap:round;stroke-linejoin:round;stroke-miterlimit:4;stroke-dasharray:none;stroke-opacity:1;paint-order:markers stroke fill"
         id="rect371596"
         width="37.187374"
         height="37.187374"
         x="217.75404"
         y="145.88028" />
    </clipPath>
    <clipPath
       clipPathUnits="userSpaceOnUse"
       id="clipPath353862-9">
      <rect
         style="fill:none;fill-opacity:1;stroke:#e2c015;stroke-width:0.49;stroke-linecap:round;stroke-linejoin:round;stroke-miterlimit:4;stroke-dasharray:none;stroke-opacity:0;paint-order:markers stroke fill"
         id="rect353864-8"
         width="37.187374"
         height="37.187374"
         x="180.56668"
         y="183.06766" />
    </clipPath>
    <clipPath
       clipPathUnits="userSpaceOnUse"
       id="clipPath353858-3">
      <rect
         style="fill:none;fill-opacity:1;stroke:#e2c015;stroke-width:0.49;stroke-linecap:round;stroke-linejoin:round;stroke-miterlimit:4;stroke-dasharray:none;stroke-opacity:0;paint-order:markers stroke fill"
         id="rect353860-6"
         width="37.187374"
         height="37.187374"
         x="180.56668"
         y="183.06766" />
    </clipPath>
    <clipPath
       clipPathUnits="userSpaceOnUse"
       id="clipPath353854-5">
      <rect
         style="fill:none;fill-opacity:1;stroke:#e2c015;stroke-width:0.49;stroke-linecap:round;stroke-linejoin:round;stroke-miterlimit:4;stroke-dasharray:none;stroke-opacity:0;paint-order:markers stroke fill"
         id="rect353856-3"
         width="37.187374"
         height="37.187374"
         x="180.56668"
         y="183.06766" />
    </clipPath>
    <clipPath
       clipPathUnits="userSpaceOnUse"
       id="clipPath353850-1">
      <rect
         style="fill:none;fill-opacity:1;stroke:#e2c015;stroke-width:0.49;stroke-linecap:round;stroke-linejoin:round;stroke-miterlimit:4;stroke-dasharray:none;stroke-opacity:0;paint-order:markers stroke fill"
         id="rect353852-3"
         width="37.187374"
         height="37.187374"
         x="180.56668"
         y="183.06766" />
    </clipPath>
    <clipPath
       clipPathUnits="userSpaceOnUse"
       id="clipPath371594-4">
      <rect
         style="fill:#85127e;fill-opacity:1;stroke:none;stroke-width:0.989769;stroke-linecap:round;stroke-linejoin:round;stroke-miterlimit:4;stroke-dasharray:none;stroke-opacity:1;paint-order:markers stroke fill"
         id="rect371596-8"
         width="37.187374"
         height="37.187374"
         x="217.75404"
         y="145.88028" />
    </clipPath>
    <clipPath
       clipPathUnits="userSpaceOnUse"
       id="clipPath353862-9-3">
      <rect
         style="fill:none;fill-opacity:1;stroke:#e2c015;stroke-width:0.49;stroke-linecap:round;stroke-linejoin:round;stroke-miterlimit:4;stroke-dasharray:none;stroke-opacity:0;paint-order:markers stroke fill"
         id="rect353864-8-8"
         width="37.187374"
         height="37.187374"
         x="180.56668"
         y="183.06766" />
    </clipPath>
    <clipPath
       clipPathUnits="userSpaceOnUse"
       id="clipPath353858-3-6">
      <rect
         style="fill:none;fill-opacity:1;stroke:#e2c015;stroke-width:0.49;stroke-linecap:round;stroke-linejoin:round;stroke-miterlimit:4;stroke-dasharray:none;stroke-opacity:0;paint-order:markers stroke fill"
         id="rect353860-6-3"
         width="37.187374"
         height="37.187374"
         x="180.56668"
         y="183.06766" />
    </clipPath>
    <clipPath
       clipPathUnits="userSpaceOnUse"
       id="clipPath353854-5-8">
      <rect
         style="fill:none;fill-opacity:1;stroke:#e2c015;stroke-width:0.49;stroke-linecap:round;stroke-linejoin:round;stroke-miterlimit:4;stroke-dasharray:none;stroke-opacity:0;paint-order:markers stroke fill"
         id="rect353856-3-2"
         width="37.187374"
         height="37.187374"
         x="180.56668"
         y="183.06766" />
    </clipPath>
    <clipPath
       clipPathUnits="userSpaceOnUse"
       id="clipPath353850-1-7">
      <rect
         style="fill:none;fill-opacity:1;stroke:#e2c015;stroke-width:0.49;stroke-linecap:round;stroke-linejoin:round;stroke-miterlimit:4;stroke-dasharray:none;stroke-opacity:0;paint-order:markers stroke fill"
         id="rect353852-3-3"
         width="37.187374"
         height="37.187374"
         x="180.56668"
         y="183.06766" />
    </clipPath>
    <clipPath
       clipPathUnits="userSpaceOnUse"
       id="clipPath371594-4-2">
      <rect
         style="fill:#85127e;fill-opacity:1;stroke:none;stroke-width:0.989769;stroke-linecap:round;stroke-linejoin:round;stroke-miterlimit:4;stroke-dasharray:none;stroke-opacity:1;paint-order:markers stroke fill"
         id="rect371596-8-0"
         width="37.187374"
         height="37.187374"
         x="217.75404"
         y="145.88028" />
    </clipPath>
    <clipPath
       clipPathUnits="userSpaceOnUse"
       id="clipPath353862-9-3-0">
      <rect
         style="fill:none;fill-opacity:1;stroke:#e2c015;stroke-width:0.49;stroke-linecap:round;stroke-linejoin:round;stroke-miterlimit:4;stroke-dasharray:none;stroke-opacity:0;paint-order:markers stroke fill"
         id="rect353864-8-8-7"
         width="37.187374"
         height="37.187374"
         x="180.56668"
         y="183.06766" />
    </clipPath>
    <clipPath
       clipPathUnits="userSpaceOnUse"
       id="clipPath353858-3-6-6">
      <rect
         style="fill:none;fill-opacity:1;stroke:#e2c015;stroke-width:0.49;stroke-linecap:round;stroke-linejoin:round;stroke-miterlimit:4;stroke-dasharray:none;stroke-opacity:0;paint-order:markers stroke fill"
         id="rect353860-6-3-6"
         width="37.187374"
         height="37.187374"
         x="180.56668"
         y="183.06766" />
    </clipPath>
    <clipPath
       clipPathUnits="userSpaceOnUse"
       id="clipPath353854-5-8-4">
      <rect
         style="fill:none;fill-opacity:1;stroke:#e2c015;stroke-width:0.49;stroke-linecap:round;stroke-linejoin:round;stroke-miterlimit:4;stroke-dasharray:none;stroke-opacity:0;paint-order:markers stroke fill"
         id="rect353856-3-2-8"
         width="37.187374"
         height="37.187374"
         x="180.56668"
         y="183.06766" />
    </clipPath>
    <clipPath
       clipPathUnits="userSpaceOnUse"
       id="clipPath353850-1-7-4">
      <rect
         style="fill:none;fill-opacity:1;stroke:#e2c015;stroke-width:0.49;stroke-linecap:round;stroke-linejoin:round;stroke-miterlimit:4;stroke-dasharray:none;stroke-opacity:0;paint-order:markers stroke fill"
         id="rect353852-3-3-5"
         width="37.187374"
         height="37.187374"
         x="180.56668"
         y="183.06766" />
    </clipPath>
    <clipPath
       clipPathUnits="userSpaceOnUse"
       id="clipPath371594-4-2-8">
      <rect
         style="fill:#85127e;fill-opacity:1;stroke:none;stroke-width:0.989769;stroke-linecap:round;stroke-linejoin:round;stroke-miterlimit:4;stroke-dasharray:none;stroke-opacity:1;paint-order:markers stroke fill"
         id="rect371596-8-0-2"
         width="37.187374"
         height="37.187374"
         x="217.75404"
         y="145.88028" />
    </clipPath>
    <clipPath
       clipPathUnits="userSpaceOnUse"
       id="clipPath353862-9-3-0-8">
      <rect
         style="fill:none;fill-opacity:1;stroke:#e2c015;stroke-width:0.49;stroke-linecap:round;stroke-linejoin:round;stroke-miterlimit:4;stroke-dasharray:none;stroke-opacity:0;paint-order:markers stroke fill"
         id="rect353864-8-8-7-8"
         width="37.187374"
         height="37.187374"
         x="180.56668"
         y="183.06766" />
    </clipPath>
    <clipPath
       clipPathUnits="userSpaceOnUse"
       id="clipPath353858-3-6-6-0">
      <rect
         style="fill:none;fill-opacity:1;stroke:#e2c015;stroke-width:0.49;stroke-linecap:round;stroke-linejoin:round;stroke-miterlimit:4;stroke-dasharray:none;stroke-opacity:0;paint-order:markers stroke fill"
         id="rect353860-6-3-6-6"
         width="37.187374"
         height="37.187374"
         x="180.56668"
         y="183.06766" />
    </clipPath>
    <clipPath
       clipPathUnits="userSpaceOnUse"
       id="clipPath353854-5-8-4-9">
      <rect
         style="fill:none;fill-opacity:1;stroke:#e2c015;stroke-width:0.49;stroke-linecap:round;stroke-linejoin:round;stroke-miterlimit:4;stroke-dasharray:none;stroke-opacity:0;paint-order:markers stroke fill"
         id="rect353856-3-2-8-7"
         width="37.187374"
         height="37.187374"
         x="180.56668"
         y="183.06766" />
    </clipPath>
    <clipPath
       clipPathUnits="userSpaceOnUse"
       id="clipPath353850-1-7-4-1">
      <rect
         style="fill:none;fill-opacity:1;stroke:#e2c015;stroke-width:0.49;stroke-linecap:round;stroke-linejoin:round;stroke-miterlimit:4;stroke-dasharray:none;stroke-opacity:0;paint-order:markers stroke fill"
         id="rect353852-3-3-5-2"
         width="37.187374"
         height="37.187374"
         x="180.56668"
         y="183.06766" />
    </clipPath>
    <clipPath
       clipPathUnits="userSpaceOnUse"
       id="clipPath371594-4-2-8-2">
      <rect
         style="fill:#85127e;fill-opacity:1;stroke:none;stroke-width:0.989769;stroke-linecap:round;stroke-linejoin:round;stroke-miterlimit:4;stroke-dasharray:none;stroke-opacity:1;paint-order:markers stroke fill"
         id="rect371596-8-0-2-2"
         width="37.187374"
         height="37.187374"
         x="217.75404"
         y="145.88028" />
    </clipPath>
    <clipPath
       clipPathUnits="userSpaceOnUse"
       id="clipPath353862-9-3-0-8-4">
      <rect
         style="fill:none;fill-opacity:1;stroke:#e2c015;stroke-width:0.49;stroke-linecap:round;stroke-linejoin:round;stroke-miterlimit:4;stroke-dasharray:none;stroke-opacity:0;paint-order:markers stroke fill"
         id="rect353864-8-8-7-8-4"
         width="37.187374"
         height="37.187374"
         x="180.56668"
         y="183.06766" />
    </clipPath>
    <clipPath
       clipPathUnits="userSpaceOnUse"
       id="clipPath353858-3-6-6-0-1">
      <rect
         style="fill:none;fill-opacity:1;stroke:#e2c015;stroke-width:0.49;stroke-linecap:round;stroke-linejoin:round;stroke-miterlimit:4;stroke-dasharray:none;stroke-opacity:0;paint-order:markers stroke fill"
         id="rect353860-6-3-6-6-4"
         width="37.187374"
         height="37.187374"
         x="180.56668"
         y="183.06766" />
    </clipPath>
    <clipPath
       clipPathUnits="userSpaceOnUse"
       id="clipPath353854-5-8-4-9-0">
      <rect
         style="fill:none;fill-opacity:1;stroke:#e2c015;stroke-width:0.49;stroke-linecap:round;stroke-linejoin:round;stroke-miterlimit:4;stroke-dasharray:none;stroke-opacity:0;paint-order:markers stroke fill"
         id="rect353856-3-2-8-7-7"
         width="37.187374"
         height="37.187374"
         x="180.56668"
         y="183.06766" />
    </clipPath>
    <clipPath
       clipPathUnits="userSpaceOnUse"
       id="clipPath353850-1-7-4-1-7">
      <rect
         style="fill:none;fill-opacity:1;stroke:#e2c015;stroke-width:0.49;stroke-linecap:round;stroke-linejoin:round;stroke-miterlimit:4;stroke-dasharray:none;stroke-opacity:0;paint-order:markers stroke fill"
         id="rect353852-3-3-5-2-7"
         width="37.187374"
         height="37.187374"
         x="180.56668"
         y="183.06766" />
    </clipPath>
    <clipPath
       clipPathUnits="userSpaceOnUse"
       id="clipPath371594-4-2-8-2-5">
      <rect
         style="fill:#85127e;fill-opacity:1;stroke:none;stroke-width:0.989769;stroke-linecap:round;stroke-linejoin:round;stroke-miterlimit:4;stroke-dasharray:none;stroke-opacity:1;paint-order:markers stroke fill"
         id="rect371596-8-0-2-2-9"
         width="37.187374"
         height="37.187374"
         x="217.75404"
         y="145.88028" />
    </clipPath>
  </defs>
  <g
     inkscape:label="Calque 1"
     inkscape:groupmode="layer"
     id="layer1"
     transform="translate(-4.9825511,-4.9825504)">
    <g
       id="g8399"
       transform="translate(-0.15387212,-0.1734899)">
      <rect
         style="fill:#2dd9cb;fill-opacity:1;stroke:none;stroke-width:0.450299;stroke-linecap:round;stroke-linejoin:round;stroke-miterlimit:4;stroke-dasharray:none;stroke-opacity:1;paint-order:markers stroke fill"
         id="rect291252-4-6"
         width="16.91852"
         height="16.91852"
         x="5.136426"
         y="5.1560397" />
      <path
         style="fill:#ffffff;fill-opacity:1;stroke-width:0.0896913"
         d="m 234.6812,187.67927 c -4.47669,-0.46268 -8.48359,-2.06392 -12.06347,-4.82081 -1.7465,-1.34497 -4.01186,-3.86917 -5.3283,-5.93711 -0.5568,-0.87462 -1.65708,-3.13026 -2.06006,-4.22321 -0.4578,-1.2416 -0.92424,-3.07708 -1.14908,-4.52173 -0.27977,-1.79819 -0.27977,-4.92862 0,-6.72684 0.60046,-3.85799 2.05287,-7.3115 4.39443,-10.44906 0.99681,-1.3356 3.16612,-3.50494 4.50178,-4.50175 3.13297,-2.33817 6.59665,-3.79485 10.44903,-4.39443 1.80026,-0.28007 4.92982,-0.28007 6.72687,6.7e-4 2.48565,0.38797 4.46589,1.01252 6.72684,2.12162 2.41679,1.18552 4.12985,2.41824 6.1039,4.3923 1.97409,1.97408 3.2068,3.68714 4.39233,6.10392 1.0982,2.23879 1.74054,4.27481 2.12217,6.72685 0.27978,1.79821 0.27978,4.92865 0,6.72684 -0.77573,4.98417 -2.94975,9.26602 -6.5145,12.8308 -3.5597,3.5597 -7.90022,5.76513 -12.80308,6.50524 -1.38218,0.20852 -4.25171,0.29569 -5.49886,0.16675 z m 0.76239,-7.03238 v -4.16725 l -0.60542,0.0467 c -1.90542,0.14748 -5.15302,0.65393 -5.33721,0.83251 -0.10601,0.10279 1.10472,2.46391 1.7993,3.50879 1.14703,1.72556 2.33481,2.93895 3.56034,3.63709 0.29598,0.16851 0.54824,0.3072 0.56057,0.30796 0.0117,6.7e-4 0.0234,-1.87389 0.0234,-4.16591 z m 4.38678,3.07343 c 0.79697,-0.65769 1.64665,-1.64808 2.4473,-2.85256 0.69455,-1.04488 1.90531,-3.40597 1.7993,-3.5088 -0.18427,-0.17843 -3.43178,-0.68517 -5.33721,-0.83251 l -0.60542,-0.0467 v 4.17333 4.17335 l 0.53294,-0.29297 c 0.29308,-0.1612 0.8165,-0.52701 1.16309,-0.81303 z m -10.16382,-0.49815 c -1.00166,-1.37313 -1.93858,-3.02983 -2.6352,-4.65969 l -0.19946,-0.46662 -0.55993,0.21173 c -1.13701,0.42967 -1.52694,0.59637 -2.34316,1.00166 l -0.83487,0.41457 0.36729,0.32925 c 1.61398,1.44678 3.86438,2.8235 5.94988,3.63989 0.43204,0.16909 0.79504,0.309 0.80672,0.31081 0.0117,0.002 -0.23655,-0.34983 -0.5513,-0.78146 z m 16.04671,-0.24619 c 0.73996,-0.36254 1.74898,-0.92865 2.24229,-1.25804 0.77775,-0.51936 1.15389,-0.80827 2.33808,-1.79594 l 0.2199,-0.1834 -0.84352,-0.41887 c -0.82539,-0.40984 -2.46815,-1.09563 -2.77064,-1.15661 -0.11682,-0.0234 -0.26488,0.21319 -0.63533,1.01629 -0.26546,0.57587 -0.63527,1.32255 -0.82144,1.65929 -0.36371,0.65779 -1.50946,2.39675 -1.89839,2.88124 l -0.23743,0.29578 0.53055,-0.19012 c 0.29174,-0.10455 1.1359,-0.48688 1.87587,-0.84939 z m -23.29607,-5.90838 c 0.93142,-0.46592 2.59752,-1.17612 3.35717,-1.43107 0.14135,-0.0473 0.1396,-0.094 -0.0263,-0.66114 -0.61202,-2.09411 -1.09502,-4.74126 -1.24919,-6.84658 -0.0558,-0.76304 -0.12032,-1.51851 -0.14339,-1.67883 l -0.0418,-0.29146 h -3.8659 -3.8659 l 0.0602,0.7845 c 0.21494,2.79611 1.54102,6.50066 3.22788,9.0175 0.66675,0.99479 1.20632,1.67848 1.32463,1.67848 0.0441,0 0.5942,-0.25699 1.22246,-0.57137 z m 30.37286,0.17259 c 2.11513,-2.58125 3.89174,-6.99411 4.14564,-10.29731 l 0.0602,-0.7845 h -3.8659 -3.8659 l -0.0444,0.29145 c -0.0234,0.16033 -0.0692,0.71532 -0.0993,1.23327 -0.12792,2.19688 -0.61521,4.94954 -1.28882,7.27938 l -0.1726,0.59736 1.26949,0.50534 c 0.6982,0.27802 1.73362,0.74365 2.3009,1.03486 0.56731,0.29117 1.07706,0.53163 1.13278,0.53417 0.0558,0.003 0.24824,-0.17493 0.42799,-0.39405 z m -22.89043,-2.73539 c 1.28163,-0.27335 3.12307,-0.53312 4.19631,-0.59214 0.51924,-0.0292 1.03486,-0.0704 1.14587,-0.0929 l 0.20179,-0.0409 v -3.81015 -3.81018 h -4.21859 -4.21856 l 0.0453,0.42602 c 0.0263,0.23422 0.0689,0.76911 0.0975,1.18842 0.11331,1.65387 0.51822,3.96093 1.04474,5.95081 l 0.28152,1.06404 0.27744,-0.0488 c 0.15273,-0.0263 0.66853,-0.13229 1.14645,-0.23392 z m 15.48603,-0.78993 c 0.61377,-2.32313 0.87941,-3.96709 1.13047,-6.99593 l 0.0464,-0.56056 h -4.2141 -4.21412 v 3.81018 3.81015 l 0.2018,0.0409 c 0.11097,0.0234 0.6256,0.0645 1.14355,0.0932 1.18579,0.066 3.18163,0.35337 4.35004,0.62651 1.3727,0.32086 1.23395,0.39439 1.55592,-0.82442 z M 224.3555,163.17612 c 0.0234,-0.16033 0.0876,-0.91577 0.14339,-1.67883 0.15419,-2.1053 0.63714,-4.75247 1.24916,-6.84655 0.16588,-0.56737 0.16763,-0.61386 0.0263,-0.66316 -0.97733,-0.34075 -1.83367,-0.70337 -3.10029,-1.31285 l -1.51325,-0.72814 -0.30498,0.35661 c -0.61809,0.72273 -1.59101,2.27555 -2.2219,3.54629 -1.05928,2.13357 -1.83502,4.79522 -1.99173,6.83362 l -0.0602,0.78452 h 3.86591 3.8659 z m 11.08809,-3.51078 c 0,-4.29999 0.0788,-3.91117 -0.79267,-3.91117 -1.01407,0 -3.464,-0.34326 -5.23918,-0.73406 -0.48101,-0.10601 -0.89451,-0.1726 -0.91883,-0.14836 -0.0234,0.0234 -0.20647,0.67943 -0.40439,1.45575 -0.53045,2.07922 -0.8274,3.97612 -1.02292,6.53465 l -0.0464,0.60543 h 4.21211 4.21211 z m 11.07253,3.24173 c -0.12177,-1.46907 -0.24501,-2.60681 -0.36501,-3.3721 -0.31692,-2.01952 -0.97316,-4.6777 -1.15483,-4.6777 -0.061,0 -0.55029,0.0987 -1.08723,0.21961 -1.27971,0.28795 -3.25227,0.5714 -4.42933,0.63655 -0.51798,0.0292 -1.03258,0.0704 -1.14358,0.0929 l -0.2018,0.0409 v 3.81018 3.81018 h 4.21412 4.21413 z m 10.41957,-0.22399 c -0.15595,-2.02814 -0.93951,-4.7167 -1.98901,-6.82412 -0.64043,-1.28596 -1.61374,-2.84161 -2.22538,-3.55675 l -0.30579,-0.35754 -1.51246,0.73067 c -0.83184,0.40187 -1.90233,0.87833 -2.37885,1.05881 l -0.86641,0.32811 0.17317,0.59929 c 0.67423,2.33203 1.16149,5.08366 1.28941,7.2813 0.0301,0.51796 0.0748,1.07294 0.0993,1.23324 l 0.0444,0.29146 h 3.8659 3.8659 z m -21.4921,-13.70671 v -4.17671 l -0.53293,0.29297 c -1.21441,0.66762 -2.45449,1.92662 -3.6104,3.66559 -0.69458,1.04485 -1.90534,3.40594 -1.7993,3.50877 0.17464,0.16938 3.66705,0.7251 5.18024,0.82436 0.24677,0.0175 0.5191,0.0368 0.60542,0.0456 0.14748,0.0146 0.15683,-0.23626 0.15683,-4.16057 z m 5.04982,3.94612 c 1.24318,-0.14105 3.47373,-0.54897 3.58356,-0.6555 0.10601,-0.1028 -1.10475,-2.46392 -1.7993,-3.50877 -1.15591,-1.73897 -2.39599,-2.99797 -3.61039,-3.66559 l -0.53294,-0.29297 v 4.17332 4.17336 l 0.60542,-0.0467 c 0.33298,-0.0263 1.12212,-0.10542 1.75365,-0.17697 z m -13.17216,-2.48947 c 0.74309,-1.61485 1.63897,-3.13432 2.53486,-4.29928 l 0.39737,-0.5167 -0.52172,0.18895 c -0.78228,0.28327 -2.63757,1.18669 -3.46973,1.68937 -0.79048,0.47745 -2.10354,1.43977 -2.77257,2.03194 l -0.413,0.36554 0.77966,0.39107 c 0.78756,0.39501 2.90793,1.26163 2.96096,1.21017 0.0146,-0.0146 0.24268,-0.49284 0.50417,-1.06112 z m 20.79851,0.57549 c 0.38631,-0.15449 1.08293,-0.46997 1.54809,-0.70095 l 0.84577,-0.41998 -0.21991,-0.18339 c -1.18418,-0.98764 -1.56032,-1.27659 -2.33808,-1.79592 -0.91588,-0.61155 -3.17765,-1.77035 -4.10043,-2.10079 l -0.51276,-0.1837 0.57076,0.78246 c 0.99996,1.37079 1.93728,3.02845 2.6335,4.65738 l 0.19946,0.46664 0.33567,-0.12031 c 0.18457,-0.0663 0.65171,-0.24678 1.03802,-0.40135 z"
         id="path370923"
         clip-path="url(#clipPath371594-4-2-8-2-5)"
         transform="matrix(0.45495333,0,0,0.45495333,-93.931507,-61.212678)" />
    </g>
  </g>
</svg>
