<?xml version="1.0" encoding="UTF-8" standalone="no"?>
<!-- Created with Inkscape (http://www.inkscape.org/) -->

<svg
   width="61.503mm"
   height="15.428mm"
   version="1.1"
   viewBox="0 0 61.503 15.428"
   id="svg20"
   sodipodi:docname="geocom.svg"
   inkscape:version="1.1 (c68e22c387, 2021-05-23)"
   xmlns:inkscape="http://www.inkscape.org/namespaces/inkscape"
   xmlns:sodipodi="http://sodipodi.sourceforge.net/DTD/sodipodi-0.dtd"
   xmlns="http://www.w3.org/2000/svg"
   xmlns:svg="http://www.w3.org/2000/svg">
  <defs
     id="defs24" />
  <sodipodi:namedview
     id="namedview22"
     pagecolor="#ffffff"
     bordercolor="#666666"
     borderopacity="1.0"
     inkscape:pageshadow="2"
     inkscape:pageopacity="0.0"
     inkscape:pagecheckerboard="0"
     inkscape:document-units="mm"
     showgrid="false"
     inkscape:zoom="5.5022046"
     inkscape:cx="116.13527"
     inkscape:cy="29.170125"
     inkscape:window-width="2400"
     inkscape:window-height="1271"
     inkscape:window-x="2391"
     inkscape:window-y="-9"
     inkscape:window-maximized="1"
     inkscape:current-layer="text4" />
  <g
     transform="translate(-28.136 -176.63)"
     id="g18">
    <g
       aria-label="GE    C   M"
       id="text4"
       style="font-size:10.949px;line-height:1.25;font-family:Roboto;letter-spacing:0.85424px;fill:#ffffff;stroke-width:0.68433">
      <path
         d="m 35.447528,184.58817 q -0.0661,-0.24495 -0.194407,-0.43158 -0.128308,-0.19052 -0.314939,-0.32272 -0.186631,-0.13219 -0.427695,-0.19829 -0.241065,-0.07 -0.528787,-0.07 -0.579333,0 -1.00314,0.27995 -0.419919,0.27994 -0.64932,0.81651 -0.2294,0.53267 -0.2294,1.29475 0,0.76596 0.221624,1.30641 0.221624,0.54045 0.641543,0.82429 0.419919,0.28383 1.018693,0.28383 0.528787,0 0.894272,-0.17108 0.369373,-0.17496 0.559892,-0.49379 0.190519,-0.31883 0.190519,-0.75041 l 0.357708,0.0428 h -1.936293 v -1.40362 h 3.433227 v 1.05369 q 0,1.06923 -0.454912,1.83131 -0.451024,0.76208 -1.244205,1.17033 -0.789292,0.40825 -1.815761,0.40825 -1.139225,0 -2.002392,-0.49379 -0.863167,-0.49379 -1.345296,-1.40751 -0.482129,-0.9176 -0.482129,-2.17735 0,-0.97981 0.29161,-1.738 0.291611,-0.76208 0.812621,-1.29086 0.524899,-0.52879 1.2131,-0.80096 0.692089,-0.27217 1.489157,-0.27217 0.692089,0 1.286974,0.19829 0.598774,0.1983 1.057574,0.5599 0.462689,0.36159 0.750411,0.85928 0.287723,0.49768 0.357709,1.09256 z"
         style="font-weight:800;font-family:inter"
         id="path841" />
      <path
         d="m 39.470591,186.72128 v -7.96291 h 5.552263 v 1.56303 H 41.39522 v 1.63302 h 3.3438 v 1.56692 h -3.3438 v 1.63691 h 3.627634 v 1.56303 z"
         style="font-weight:800;font-family:inter"
         id="path843" />
      <path
         d="m 67.152242,184.87201 h -1.94407 q -0.03888,-0.29939 -0.159413,-0.54045 -0.120533,-0.24107 -0.318828,-0.41215 -0.198295,-0.17108 -0.470465,-0.2605 -0.268281,-0.0933 -0.594885,-0.0933 -0.579333,0 -0.999252,0.28384 -0.416031,0.28383 -0.641543,0.82039 -0.221624,0.53657 -0.221624,1.29864 0,0.79318 0.225512,1.32975 0.229401,0.53267 0.641543,0.80484 0.416031,0.26828 0.9837,0.26828 0.318827,0 0.579332,-0.0816 0.264394,-0.0816 0.462689,-0.23718 0.202183,-0.15941 0.330492,-0.38492 0.132197,-0.2294 0.182742,-0.51712 l 1.94407,0.0117 q -0.05055,0.52879 -0.307163,1.04202 -0.252729,0.51324 -0.695977,0.93704 -0.443248,0.41992 -1.080903,0.66876 -0.633766,0.24884 -1.454164,0.24884 -1.080903,0 -1.936293,-0.47435 -0.851503,-0.47824 -1.345296,-1.39195 -0.493794,-0.91371 -0.493794,-2.22402 0,-1.31419 0.50157,-2.2279 0.50157,-0.91371 1.356961,-1.38807 0.85539,-0.47435 1.916852,-0.47435 0.723194,0 1.33752,0.20218 0.614326,0.1983 1.080903,0.58322 0.466577,0.38104 0.758187,0.93705 0.29161,0.556 0.361597,1.27142 z"
         style="font-weight:800;font-family:inter"
         id="path845" />
      <path
         d="m 78.734278,181.98701 h 2.38343 l 2.021832,4.93016 h 0.09332 l 2.021833,-4.93016 h 2.383429 v 7.96291 h -1.874083 v -4.89128 h -0.0661 l -1.912965,4.84073 h -1.197547 l -1.912964,-4.86795 h -0.0661 v 4.9185 h -1.874083 z"
         style="font-weight:800;font-family:inter"
         id="path847" />
    </g>
    <g
       stroke-linecap="round"
       stroke-linejoin="round"
       id="g12">
      <path
         id="circle6"
         style="fill:#2dd9cb;stroke-width:0.38287;paint-order:markers stroke fill"
         d="m 57.959999,184.35001 a 5.6599998,5.6599998 0 0 1 -5.66,5.66 5.6599998,5.6599998 0 0 1 -5.66,-5.66 5.6599998,5.6599998 0 0 1 5.66,-5.66 5.6599998,5.6599998 0 0 1 5.66,5.66 z" />
      <path
         id="circle8"
         style="fill:#ffffff;fill-opacity:0.59585;stroke-width:1.5599;paint-order:markers stroke fill"
         d="m 54.915099,184.35001 a 2.6150999,2.6150999 0 0 1 -2.6151,2.6151 2.6150999,2.6150999 0 0 1 -2.6151,-2.6151 2.6150999,2.6150999 0 0 1 2.6151,-2.6151 2.6150999,2.6150999 0 0 1 2.6151,2.6151 z" />
      <path
         d="m72.789 178.63a4.3729 4.3729 0 0 0-4.3729 4.3729 4.3729 4.3729 0 0 0 4.3729 4.3729 4.3729 4.3729 0 0 0 4.3728-4.3729 4.3729 4.3729 0 0 0-4.3728-4.3729zm0 1.9198a2.4534 2.4534 0 0 1 2.4536 2.4531 2.4534 2.4534 0 0 1-2.4536 2.4536 2.4534 2.4534 0 0 1-2.4531-2.4536 2.4534 2.4534 0 0 1 2.4531-2.4531z"
         fill="#fff"
         stroke-width=".2958"
         style="paint-order:markers stroke fill"
         id="path10" />
    </g>
    <g
       aria-label="LE"
       id="text16"
       style="font-size:3.2514px;line-height:1.25;font-family:Roboto;fill:#ffffff;stroke-width:0.20321">
      <path
         d="m 30.17891,181.11781 v -2.36465 h 0.571535 v 1.9005 h 0.983734 v 0.46415 z"
         style="font-weight:800;font-family:inter"
         id="path852" />
      <path
         d="m 32.029758,181.11781 v -2.36465 h 1.648792 v 0.46415 h -1.077257 v 0.48494 h 0.99297 v 0.46531 h -0.99297 v 0.4861 h 1.077257 v 0.46415 z"
         style="font-weight:800;font-family:inter"
         id="path854" />
    </g>
  </g>
</svg>
