<?xml version="1.0" encoding="UTF-8" standalone="no"?>
<!-- Created with Inkscape (http://www.inkscape.org/) -->

<svg
   width="420.59344mm"
   height="26.453497mm"
   viewBox="0 0 420.59344 26.453497"
   version="1.1"
   id="svg49897"
   inkscape:version="1.1 (c68e22c387, 2021-05-23)"
   xmlns:inkscape="http://www.inkscape.org/namespaces/inkscape"
   xmlns:sodipodi="http://sodipodi.sourceforge.net/DTD/sodipodi-0.dtd"
   xmlns="http://www.w3.org/2000/svg"
   xmlns:svg="http://www.w3.org/2000/svg">
  <sodipodi:namedview
     id="namedview49899"
     pagecolor="#ffffff"
     bordercolor="#666666"
     borderopacity="1.0"
     inkscape:pageshadow="2"
     inkscape:pageopacity="0.0"
     inkscape:pagecheckerboard="0"
     inkscape:document-units="mm"
     showgrid="false"
     fit-margin-top="0"
     fit-margin-left="0"
     fit-margin-right="0"
     fit-margin-bottom="0"
     inkscape:zoom="0.72337262"
     inkscape:cx="651.11671"
     inkscape:cy="89.165665"
     inkscape:window-width="2400"
     inkscape:window-height="1271"
     inkscape:window-x="2391"
     inkscape:window-y="-9"
     inkscape:window-maximized="1"
     inkscape:current-layer="layer1" />
  <defs
     id="defs49894">
    <clipPath
       clipPathUnits="userSpaceOnUse"
       id="clipPath353862">
      <rect
         style="fill:none;fill-opacity:1;stroke:#e2c015;stroke-width:0.49;stroke-linecap:round;stroke-linejoin:round;stroke-miterlimit:4;stroke-dasharray:none;stroke-opacity:0;paint-order:markers stroke fill"
         id="rect353864"
         width="37.187374"
         height="37.187374"
         x="180.56668"
         y="183.06766" />
    </clipPath>
    <clipPath
       clipPathUnits="userSpaceOnUse"
       id="clipPath353858">
      <rect
         style="fill:none;fill-opacity:1;stroke:#e2c015;stroke-width:0.49;stroke-linecap:round;stroke-linejoin:round;stroke-miterlimit:4;stroke-dasharray:none;stroke-opacity:0;paint-order:markers stroke fill"
         id="rect353860"
         width="37.187374"
         height="37.187374"
         x="180.56668"
         y="183.06766" />
    </clipPath>
    <clipPath
       clipPathUnits="userSpaceOnUse"
       id="clipPath353854">
      <rect
         style="fill:none;fill-opacity:1;stroke:#e2c015;stroke-width:0.49;stroke-linecap:round;stroke-linejoin:round;stroke-miterlimit:4;stroke-dasharray:none;stroke-opacity:0;paint-order:markers stroke fill"
         id="rect353856"
         width="37.187374"
         height="37.187374"
         x="180.56668"
         y="183.06766" />
    </clipPath>
    <clipPath
       clipPathUnits="userSpaceOnUse"
       id="clipPath353850">
      <rect
         style="fill:none;fill-opacity:1;stroke:#e2c015;stroke-width:0.49;stroke-linecap:round;stroke-linejoin:round;stroke-miterlimit:4;stroke-dasharray:none;stroke-opacity:0;paint-order:markers stroke fill"
         id="rect353852"
         width="37.187374"
         height="37.187374"
         x="180.56668"
         y="183.06766" />
    </clipPath>
    <clipPath
       clipPathUnits="userSpaceOnUse"
       id="clipPath371594">
      <rect
         style="fill:#85127e;fill-opacity:1;stroke:none;stroke-width:0.989769;stroke-linecap:round;stroke-linejoin:round;stroke-miterlimit:4;stroke-dasharray:none;stroke-opacity:1;paint-order:markers stroke fill"
         id="rect371596"
         width="37.187374"
         height="37.187374"
         x="217.75404"
         y="145.88028" />
    </clipPath>
  </defs>
  <g
     inkscape:label="Calque 1"
     inkscape:groupmode="layer"
     id="layer1"
     transform="translate(16.30681,-124.76169)">
    <circle
       style="fill:#2dd9cb;fill-opacity:1;stroke:none;stroke-width:4.99999;stroke-linecap:round;stroke-linejoin:round;stroke-miterlimit:4;stroke-dasharray:none;stroke-opacity:1;paint-order:markers stroke fill"
       id="path329165"
       cx="180.62543"
       cy="183.1264"
       r="37.24612"
       clip-path="url(#clipPath353862)"
       transform="matrix(0.70688214,0,0,0.70688214,118.84675,-4.5022612)" />
    <rect
       style="fill:#2a2661;fill-opacity:1;stroke:none;stroke-width:0.69965;stroke-linecap:round;stroke-linejoin:round;stroke-miterlimit:4;stroke-dasharray:none;stroke-opacity:1;paint-order:markers stroke fill"
       id="rect291252"
       width="26.28709"
       height="26.28709"
       x="-16.30681"
       y="124.76171" />
    <rect
       style="fill:#2a2661;fill-opacity:1;stroke:none;stroke-width:0.69965;stroke-linecap:round;stroke-linejoin:round;stroke-miterlimit:4;stroke-dasharray:none;stroke-opacity:1;paint-order:markers stroke fill"
       id="rect291252-4"
       width="26.28709"
       height="26.28709"
       x="220.19901"
       y="124.90501" />
    <rect
       style="fill:#2a2661;fill-opacity:1;stroke:none;stroke-width:0.69965;stroke-linecap:round;stroke-linejoin:round;stroke-miterlimit:4;stroke-dasharray:none;stroke-opacity:1;paint-order:markers stroke fill"
       id="rect291252-4-3"
       width="26.28709"
       height="26.28709"
       x="351.71246"
       y="124.84035" />
    <rect
       style="fill:#2a2661;fill-opacity:1;stroke:none;stroke-width:0.69965;stroke-linecap:round;stroke-linejoin:round;stroke-miterlimit:4;stroke-dasharray:none;stroke-opacity:1;paint-order:markers stroke fill"
       id="rect291252-4-6"
       width="26.28709"
       height="26.28709"
       x="36.267372"
       y="124.7617" />
    <rect
       style="fill:#2dd9cb;fill-opacity:1;stroke:none;stroke-width:0.69965;stroke-linecap:round;stroke-linejoin:round;stroke-miterlimit:4;stroke-dasharray:none;stroke-opacity:1;paint-order:markers stroke fill"
       id="rect291252-4-6-7-6"
       width="26.28709"
       height="26.28709"
       x="325.42535"
       y="124.84035" />
    <rect
       style="fill:#85127e;fill-opacity:1;stroke:none;stroke-width:0.69965;stroke-linecap:round;stroke-linejoin:round;stroke-miterlimit:4;stroke-dasharray:none;stroke-opacity:1;paint-order:markers stroke fill"
       id="rect291252-4-6-3"
       width="26.28709"
       height="26.28709"
       x="62.554459"
       y="124.7617" />
    <rect
       style="fill:#85127e;fill-opacity:1;stroke:none;stroke-width:0.69965;stroke-linecap:round;stroke-linejoin:round;stroke-miterlimit:4;stroke-dasharray:none;stroke-opacity:1;paint-order:markers stroke fill"
       id="rect291252-4-6-3-5"
       width="26.28709"
       height="26.28709"
       x="377.99954"
       y="124.84035" />
    <rect
       style="fill:#2a2661;fill-opacity:1;stroke:none;stroke-width:0.69965;stroke-linecap:round;stroke-linejoin:round;stroke-miterlimit:4;stroke-dasharray:none;stroke-opacity:1;paint-order:markers stroke fill"
       id="rect291252-4-7"
       width="26.28709"
       height="26.28709"
       x="272.77319"
       y="124.90499" />
    <rect
       style="fill:#85127e;fill-opacity:1;stroke:none;stroke-width:0.69965;stroke-linecap:round;stroke-linejoin:round;stroke-miterlimit:4;stroke-dasharray:none;stroke-opacity:1;paint-order:markers stroke fill"
       id="rect291252-7"
       width="26.28709"
       height="26.28709"
       x="193.91193"
       y="124.90501" />
    <circle
       style="fill:none;fill-opacity:1;stroke:#ffffff;stroke-width:3.83927;stroke-linecap:round;stroke-linejoin:round;stroke-miterlimit:4;stroke-dasharray:none;stroke-opacity:1;paint-order:markers stroke fill"
       id="path296424"
       cx="200.57704"
       cy="131.69772"
       r="4.6781235" />
    <circle
       style="fill:none;fill-opacity:1;stroke:#ffffff;stroke-width:3.83927;stroke-linecap:round;stroke-linejoin:round;stroke-miterlimit:4;stroke-dasharray:none;stroke-opacity:1;paint-order:markers stroke fill"
       id="path296424-7"
       cx="213.47667"
       cy="144.61743"
       r="4.6781235" />
    <circle
       style="fill:none;fill-opacity:1;stroke:#ffffff;stroke-width:3.83927;stroke-linecap:round;stroke-linejoin:round;stroke-miterlimit:4;stroke-dasharray:none;stroke-opacity:1;paint-order:markers stroke fill"
       id="path296424-7-6"
       cx="213.54132"
       cy="131.56058"
       r="4.6781235" />
    <circle
       style="fill:none;fill-opacity:1;stroke:#ffffff;stroke-width:3.83927;stroke-linecap:round;stroke-linejoin:round;stroke-miterlimit:4;stroke-dasharray:none;stroke-opacity:1;paint-order:markers stroke fill"
       id="path296424-2"
       cx="200.55588"
       cy="144.56055"
       r="4.6781235" />
    <path
       style="fill:#2dd9cb;fill-opacity:1;stroke-width:0.0208947"
       d="m 22.350875,141.44345 c -0.882422,-0.0859 -1.611401,-0.32707 -2.303771,-0.76224 l -0.19341,-0.12156 -1.006013,0.33263 c -1.101422,0.36419 -1.069945,0.35802 -1.145072,0.22401 -0.03089,-0.0551 -0.0193,-0.0955 0.317489,-1.10631 l 0.349539,-1.04911 -0.08083,-0.14986 c -0.275254,-0.51029 -0.471406,-1.10594 -0.55995,-1.70033 -0.04899,-0.32878 -0.04877,-1.02666 4.17e-4,-1.36059 0.285319,-1.93754 1.625376,-3.51546 3.47451,-4.09126 0.535937,-0.16688 0.903925,-0.22152 1.491853,-0.22152 0.449429,0 0.669298,0.0218 1.058203,0.10464 1.735409,0.36991 3.165884,1.66606 3.711647,3.36312 0.169327,0.52651 0.233207,0.94717 0.233207,1.53576 0,0.23559 -0.01216,0.51767 -0.027,0.62684 -0.198691,1.45917 -0.991805,2.73547 -2.203811,3.5464 -0.590169,0.39488 -1.349177,0.68551 -2.061806,0.78948 -0.212467,0.031 -0.885228,0.0564 -1.05517,0.0398 z m -1.138758,-4.54462 c 0.19968,-0.0904 0.301428,-0.24498 0.301428,-0.458 0,-0.29873 -0.247232,-0.52586 -0.539542,-0.49568 -0.455974,0.0471 -0.614641,0.61187 -0.252017,0.89712 0.132088,0.10389 0.334058,0.1272 0.490131,0.0565 z m 1.637803,0.0181 c 0.114777,-0.0339 0.287871,-0.20701 0.32178,-0.32177 0.05789,-0.19593 0.01703,-0.3521 -0.13059,-0.49977 -0.2114,-0.2114 -0.479541,-0.2114 -0.690942,0 -0.211385,0.21139 -0.211385,0.47933 0,0.69117 0.146573,0.14689 0.304447,0.18807 0.499752,0.13037 z m 1.705346,-0.0181 c 0.19968,-0.0904 0.301422,-0.24498 0.301422,-0.458 0,-0.29873 -0.247225,-0.52586 -0.539535,-0.49568 -0.455974,0.0471 -0.614641,0.61187 -0.252018,0.89712 0.132088,0.10389 0.334059,0.1272 0.490131,0.0565 z"
       id="path298755" />
    <rect
       style="fill:#2dd9cb;fill-opacity:1;stroke:none;stroke-width:3.3124;stroke-linecap:round;stroke-linejoin:round;stroke-miterlimit:4;stroke-dasharray:none;stroke-opacity:1;paint-order:markers stroke fill"
       id="rect305737-3"
       width="4.9055076"
       height="4.9055076"
       x="281.04358"
       y="128.3515" />
    <rect
       style="fill:#ffffff;fill-opacity:1;stroke:none;stroke-width:3.3124;stroke-linecap:round;stroke-linejoin:round;stroke-miterlimit:4;stroke-dasharray:none;stroke-opacity:1;paint-order:markers stroke fill"
       id="rect305737-7"
       width="4.9055076"
       height="4.9055076"
       x="290.85458"
       y="128.3515" />
    <rect
       style="fill:#ffffff;fill-opacity:1;stroke:none;stroke-width:3.3124;stroke-linecap:round;stroke-linejoin:round;stroke-miterlimit:4;stroke-dasharray:none;stroke-opacity:1;paint-order:markers stroke fill"
       id="rect305737-4"
       width="4.9055076"
       height="4.9055076"
       x="276.13806"
       y="133.25702" />
    <rect
       style="fill:#ffffff;fill-opacity:1;stroke:none;stroke-width:3.3124;stroke-linecap:round;stroke-linejoin:round;stroke-miterlimit:4;stroke-dasharray:none;stroke-opacity:1;paint-order:markers stroke fill"
       id="rect305737-37-2"
       width="4.9055076"
       height="4.9055076"
       x="285.94907"
       y="133.25702" />
    <rect
       style="fill:#ffffff;fill-opacity:1;stroke:none;stroke-width:3.3124;stroke-linecap:round;stroke-linejoin:round;stroke-miterlimit:4;stroke-dasharray:none;stroke-opacity:1;paint-order:markers stroke fill"
       id="rect305737-3-6"
       width="4.9055076"
       height="4.9055076"
       x="281.04358"
       y="138.16254" />
    <rect
       style="fill:#2dd9cb;fill-opacity:1;stroke:none;stroke-width:3.3124;stroke-linecap:round;stroke-linejoin:round;stroke-miterlimit:4;stroke-dasharray:none;stroke-opacity:1;paint-order:markers stroke fill"
       id="rect305737-7-7"
       width="4.9055076"
       height="4.9055076"
       x="290.85458"
       y="138.16254" />
    <rect
       style="fill:#2dd9cb;fill-opacity:1;stroke:none;stroke-width:3.3124;stroke-linecap:round;stroke-linejoin:round;stroke-miterlimit:4;stroke-dasharray:none;stroke-opacity:1;paint-order:markers stroke fill"
       id="rect305737-4-6"
       width="4.9055076"
       height="4.9055076"
       x="276.13806"
       y="143.06802" />
    <rect
       style="fill:#ffffff;fill-opacity:1;stroke:none;stroke-width:3.3124;stroke-linecap:round;stroke-linejoin:round;stroke-miterlimit:4;stroke-dasharray:none;stroke-opacity:1;paint-order:markers stroke fill"
       id="rect305737-37-2-9"
       width="4.9055076"
       height="4.9055076"
       x="285.94907"
       y="143.06802" />
    <circle
       style="fill:#ffffff;fill-opacity:1;stroke:none;stroke-width:3.5344;stroke-linecap:round;stroke-linejoin:round;stroke-miterlimit:4;stroke-dasharray:none;stroke-opacity:1;paint-order:markers stroke fill"
       id="path328449"
       cx="-13.017052"
       cy="129.12964"
       r="0.90493107" />
    <circle
       style="fill:#ffffff;fill-opacity:1;stroke:none;stroke-width:3.5344;stroke-linecap:round;stroke-linejoin:round;stroke-miterlimit:4;stroke-dasharray:none;stroke-opacity:1;paint-order:markers stroke fill"
       id="path328449-7"
       cx="-9.2454271"
       cy="129.12964"
       r="0.90493107" />
    <circle
       style="fill:#ffffff;fill-opacity:1;stroke:none;stroke-width:3.5344;stroke-linecap:round;stroke-linejoin:round;stroke-miterlimit:4;stroke-dasharray:none;stroke-opacity:1;paint-order:markers stroke fill"
       id="path328449-5"
       cx="-5.4738059"
       cy="129.12964"
       r="0.90493107" />
    <circle
       style="fill:#ffffff;fill-opacity:1;stroke:none;stroke-width:3.5344;stroke-linecap:round;stroke-linejoin:round;stroke-miterlimit:4;stroke-dasharray:none;stroke-opacity:1;paint-order:markers stroke fill"
       id="path328449-7-0"
       cx="-1.7021811"
       cy="129.12964"
       r="0.90493107" />
    <circle
       style="fill:#ffffff;fill-opacity:1;stroke:none;stroke-width:3.5344;stroke-linecap:round;stroke-linejoin:round;stroke-miterlimit:4;stroke-dasharray:none;stroke-opacity:1;paint-order:markers stroke fill"
       id="path328449-1"
       cx="2.0694435"
       cy="129.12964"
       r="0.90493107" />
    <circle
       style="fill:#ffffff;fill-opacity:1;stroke:none;stroke-width:3.5344;stroke-linecap:round;stroke-linejoin:round;stroke-miterlimit:4;stroke-dasharray:none;stroke-opacity:1;paint-order:markers stroke fill"
       id="path328449-7-5"
       cx="5.8410635"
       cy="129.12964"
       r="0.90493107" />
    <circle
       style="fill:#ffffff;fill-opacity:1;stroke:none;stroke-width:3.5344;stroke-linecap:round;stroke-linejoin:round;stroke-miterlimit:4;stroke-dasharray:none;stroke-opacity:1;paint-order:markers stroke fill"
       id="path328449-3"
       cx="-11.00519"
       cy="132.71704"
       r="0.90493107" />
    <circle
       style="fill:#ffffff;fill-opacity:1;stroke:none;stroke-width:3.5344;stroke-linecap:round;stroke-linejoin:round;stroke-miterlimit:4;stroke-dasharray:none;stroke-opacity:1;paint-order:markers stroke fill"
       id="path328449-7-9"
       cx="-7.2335677"
       cy="132.71704"
       r="0.90493107" />
    <circle
       style="fill:#ffffff;fill-opacity:1;stroke:none;stroke-width:3.5344;stroke-linecap:round;stroke-linejoin:round;stroke-miterlimit:4;stroke-dasharray:none;stroke-opacity:1;paint-order:markers stroke fill"
       id="path328449-5-7"
       cx="-3.4619498"
       cy="132.71704"
       r="0.90493107" />
    <circle
       style="fill:#ffffff;fill-opacity:1;stroke:none;stroke-width:3.5344;stroke-linecap:round;stroke-linejoin:round;stroke-miterlimit:4;stroke-dasharray:none;stroke-opacity:1;paint-order:markers stroke fill"
       id="path328449-7-0-5"
       cx="0.30967966"
       cy="132.71704"
       r="0.90493107" />
    <circle
       style="fill:#ffffff;fill-opacity:1;stroke:none;stroke-width:3.5344;stroke-linecap:round;stroke-linejoin:round;stroke-miterlimit:4;stroke-dasharray:none;stroke-opacity:1;paint-order:markers stroke fill"
       id="path328449-1-9"
       cx="4.0812998"
       cy="132.71704"
       r="0.90493107" />
    <circle
       style="fill:#ffffff;fill-opacity:1;stroke:none;stroke-width:3.5344;stroke-linecap:round;stroke-linejoin:round;stroke-miterlimit:4;stroke-dasharray:none;stroke-opacity:1;paint-order:markers stroke fill"
       id="path328449-9"
       cx="-12.750417"
       cy="136.54684"
       r="0.90493107" />
    <circle
       style="fill:#ffffff;fill-opacity:1;stroke:none;stroke-width:3.5344;stroke-linecap:round;stroke-linejoin:round;stroke-miterlimit:4;stroke-dasharray:none;stroke-opacity:1;paint-order:markers stroke fill"
       id="path328449-7-7"
       cx="-8.9787979"
       cy="136.54684"
       r="0.90493107" />
    <circle
       style="fill:#ffffff;fill-opacity:1;stroke:none;stroke-width:3.5344;stroke-linecap:round;stroke-linejoin:round;stroke-miterlimit:4;stroke-dasharray:none;stroke-opacity:1;paint-order:markers stroke fill"
       id="path328449-5-2"
       cx="-5.2071767"
       cy="136.54684"
       r="0.90493107" />
    <circle
       style="fill:#ffffff;fill-opacity:1;stroke:none;stroke-width:3.5344;stroke-linecap:round;stroke-linejoin:round;stroke-miterlimit:4;stroke-dasharray:none;stroke-opacity:1;paint-order:markers stroke fill"
       id="path328449-7-0-8"
       cx="-1.4355471"
       cy="136.54684"
       r="0.90493107" />
    <circle
       style="fill:#ffffff;fill-opacity:1;stroke:none;stroke-width:3.5344;stroke-linecap:round;stroke-linejoin:round;stroke-miterlimit:4;stroke-dasharray:none;stroke-opacity:1;paint-order:markers stroke fill"
       id="path328449-1-0"
       cx="2.3360784"
       cy="136.54684"
       r="0.90493107" />
    <circle
       style="fill:#ffffff;fill-opacity:1;stroke:none;stroke-width:3.5344;stroke-linecap:round;stroke-linejoin:round;stroke-miterlimit:4;stroke-dasharray:none;stroke-opacity:1;paint-order:markers stroke fill"
       id="path328449-7-5-0"
       cx="6.1076984"
       cy="136.54684"
       r="0.90493107" />
    <circle
       style="fill:#ffffff;fill-opacity:1;stroke:none;stroke-width:3.5344;stroke-linecap:round;stroke-linejoin:round;stroke-miterlimit:4;stroke-dasharray:none;stroke-opacity:1;paint-order:markers stroke fill"
       id="path328449-3-0"
       cx="-10.738561"
       cy="140.13423"
       r="0.90493107" />
    <circle
       style="fill:#ffffff;fill-opacity:1;stroke:none;stroke-width:3.5344;stroke-linecap:round;stroke-linejoin:round;stroke-miterlimit:4;stroke-dasharray:none;stroke-opacity:1;paint-order:markers stroke fill"
       id="path328449-7-9-3"
       cx="-6.9669394"
       cy="140.13423"
       r="0.90493107" />
    <circle
       style="fill:#ffffff;fill-opacity:1;stroke:none;stroke-width:3.5344;stroke-linecap:round;stroke-linejoin:round;stroke-miterlimit:4;stroke-dasharray:none;stroke-opacity:1;paint-order:markers stroke fill"
       id="path328449-5-7-7"
       cx="-3.1953206"
       cy="140.13423"
       r="0.90493107" />
    <circle
       style="fill:#ffffff;fill-opacity:1;stroke:none;stroke-width:3.5344;stroke-linecap:round;stroke-linejoin:round;stroke-miterlimit:4;stroke-dasharray:none;stroke-opacity:1;paint-order:markers stroke fill"
       id="path328449-7-0-5-8"
       cx="0.57631463"
       cy="140.13423"
       r="0.90493107" />
    <circle
       style="fill:#ffffff;fill-opacity:1;stroke:none;stroke-width:3.5344;stroke-linecap:round;stroke-linejoin:round;stroke-miterlimit:4;stroke-dasharray:none;stroke-opacity:1;paint-order:markers stroke fill"
       id="path328449-1-9-3"
       cx="4.3479347"
       cy="140.13423"
       r="0.90493107" />
    <circle
       style="fill:#ffffff;fill-opacity:1;stroke:none;stroke-width:3.5344;stroke-linecap:round;stroke-linejoin:round;stroke-miterlimit:4;stroke-dasharray:none;stroke-opacity:1;paint-order:markers stroke fill"
       id="path328449-0"
       cx="-12.62115"
       cy="143.59238"
       r="0.90493107" />
    <circle
       style="fill:#ffffff;fill-opacity:1;stroke:none;stroke-width:3.5344;stroke-linecap:round;stroke-linejoin:round;stroke-miterlimit:4;stroke-dasharray:none;stroke-opacity:1;paint-order:markers stroke fill"
       id="path328449-7-1"
       cx="-8.8495159"
       cy="143.59238"
       r="0.90493107" />
    <circle
       style="fill:#ffffff;fill-opacity:1;stroke:none;stroke-width:3.5344;stroke-linecap:round;stroke-linejoin:round;stroke-miterlimit:4;stroke-dasharray:none;stroke-opacity:1;paint-order:markers stroke fill"
       id="path328449-5-4"
       cx="-5.0779052"
       cy="143.59238"
       r="0.90493107" />
    <circle
       style="fill:#ffffff;fill-opacity:1;stroke:none;stroke-width:3.5344;stroke-linecap:round;stroke-linejoin:round;stroke-miterlimit:4;stroke-dasharray:none;stroke-opacity:1;paint-order:markers stroke fill"
       id="path328449-7-0-57"
       cx="-1.306269"
       cy="143.59238"
       r="0.90493107" />
    <circle
       style="fill:#ffffff;fill-opacity:1;stroke:none;stroke-width:3.5344;stroke-linecap:round;stroke-linejoin:round;stroke-miterlimit:4;stroke-dasharray:none;stroke-opacity:1;paint-order:markers stroke fill"
       id="path328449-1-6"
       cx="2.465349"
       cy="143.59238"
       r="0.90493107" />
    <circle
       style="fill:#ffffff;fill-opacity:1;stroke:none;stroke-width:3.5344;stroke-linecap:round;stroke-linejoin:round;stroke-miterlimit:4;stroke-dasharray:none;stroke-opacity:1;paint-order:markers stroke fill"
       id="path328449-7-5-6"
       cx="6.236969"
       cy="143.59238"
       r="0.90493107" />
    <circle
       style="fill:#ffffff;fill-opacity:1;stroke:none;stroke-width:3.5344;stroke-linecap:round;stroke-linejoin:round;stroke-miterlimit:4;stroke-dasharray:none;stroke-opacity:1;paint-order:markers stroke fill"
       id="path328449-3-6"
       cx="-10.609279"
       cy="147.17978"
       r="0.90493107" />
    <circle
       style="fill:#ffffff;fill-opacity:1;stroke:none;stroke-width:3.5344;stroke-linecap:round;stroke-linejoin:round;stroke-miterlimit:4;stroke-dasharray:none;stroke-opacity:1;paint-order:markers stroke fill"
       id="path328449-7-9-8"
       cx="-6.8376565"
       cy="147.17978"
       r="0.90493107" />
    <circle
       style="fill:#ffffff;fill-opacity:1;stroke:none;stroke-width:3.5344;stroke-linecap:round;stroke-linejoin:round;stroke-miterlimit:4;stroke-dasharray:none;stroke-opacity:1;paint-order:markers stroke fill"
       id="path328449-5-7-6"
       cx="-3.0660481"
       cy="147.17978"
       r="0.90493107" />
    <circle
       style="fill:#ffffff;fill-opacity:1;stroke:none;stroke-width:3.5344;stroke-linecap:round;stroke-linejoin:round;stroke-miterlimit:4;stroke-dasharray:none;stroke-opacity:1;paint-order:markers stroke fill"
       id="path328449-7-0-5-3"
       cx="0.70558697"
       cy="147.17978"
       r="0.90493107" />
    <circle
       style="fill:#ffffff;fill-opacity:1;stroke:none;stroke-width:3.5344;stroke-linecap:round;stroke-linejoin:round;stroke-miterlimit:4;stroke-dasharray:none;stroke-opacity:1;paint-order:markers stroke fill"
       id="path328449-1-9-7"
       cx="4.4772067"
       cy="147.17978"
       r="0.90493107" />
    <circle
       style="fill:#85127e;fill-opacity:1;stroke:none;stroke-width:0.542354;stroke-linecap:round;stroke-linejoin:round;stroke-miterlimit:4;stroke-dasharray:none;stroke-opacity:1;paint-order:markers stroke fill"
       id="path335044"
       cx="180.62543"
       cy="183.1264"
       r="25.778736"
       clip-path="url(#clipPath353858)"
       transform="matrix(0.70688214,0,0,0.70688214,118.84675,-4.5022612)" />
    <circle
       style="fill:#2a2661;fill-opacity:1;stroke:none;stroke-width:0.361495;stroke-linecap:round;stroke-linejoin:round;stroke-miterlimit:4;stroke-dasharray:none;stroke-opacity:1;paint-order:markers stroke fill"
       id="path335044-5"
       cx="180.62543"
       cy="183.1264"
       r="17.182281"
       clip-path="url(#clipPath353854)"
       transform="matrix(0.70688214,0,0,0.70688214,118.84675,-4.5022612)" />
    <circle
       style="fill:#ffffff;fill-opacity:1;stroke:none;stroke-width:0.166517;stroke-linecap:round;stroke-linejoin:round;stroke-miterlimit:4;stroke-dasharray:none;stroke-opacity:1;paint-order:markers stroke fill"
       id="path335044-5-2"
       cx="180.62543"
       cy="183.1264"
       r="7.9147277"
       clip-path="url(#clipPath353850)"
       transform="matrix(0.70688214,0,0,0.70688214,118.84675,-4.5022612)" />
    <path
       style="fill:#ffffff;fill-opacity:1;stroke-width:0.0896913"
       d="m 234.6812,187.67927 c -4.47669,-0.46268 -8.48359,-2.06392 -12.06347,-4.82081 -1.7465,-1.34497 -4.01186,-3.86917 -5.3283,-5.93711 -0.5568,-0.87462 -1.65708,-3.13026 -2.06006,-4.22321 -0.4578,-1.2416 -0.92424,-3.07708 -1.14908,-4.52173 -0.27977,-1.79819 -0.27977,-4.92862 0,-6.72684 0.60046,-3.85799 2.05287,-7.3115 4.39443,-10.44906 0.99681,-1.3356 3.16612,-3.50494 4.50178,-4.50175 3.13297,-2.33817 6.59665,-3.79485 10.44903,-4.39443 1.80026,-0.28007 4.92982,-0.28007 6.72687,6.7e-4 2.48565,0.38797 4.46589,1.01252 6.72684,2.12162 2.41679,1.18552 4.12985,2.41824 6.1039,4.3923 1.97409,1.97408 3.2068,3.68714 4.39233,6.10392 1.0982,2.23879 1.74054,4.27481 2.12217,6.72685 0.27978,1.79821 0.27978,4.92865 0,6.72684 -0.77573,4.98417 -2.94975,9.26602 -6.5145,12.8308 -3.5597,3.5597 -7.90022,5.76513 -12.80308,6.50524 -1.38218,0.20852 -4.25171,0.29569 -5.49886,0.16675 z m 0.76239,-7.03238 v -4.16725 l -0.60542,0.0467 c -1.90542,0.14748 -5.15302,0.65393 -5.33721,0.83251 -0.10601,0.10279 1.10472,2.46391 1.7993,3.50879 1.14703,1.72556 2.33481,2.93895 3.56034,3.63709 0.29598,0.16851 0.54824,0.3072 0.56057,0.30796 0.0117,6.7e-4 0.0234,-1.87389 0.0234,-4.16591 z m 4.38678,3.07343 c 0.79697,-0.65769 1.64665,-1.64808 2.4473,-2.85256 0.69455,-1.04488 1.90531,-3.40597 1.7993,-3.5088 -0.18427,-0.17843 -3.43178,-0.68517 -5.33721,-0.83251 l -0.60542,-0.0467 v 4.17333 4.17335 l 0.53294,-0.29297 c 0.29308,-0.1612 0.8165,-0.52701 1.16309,-0.81303 z m -10.16382,-0.49815 c -1.00166,-1.37313 -1.93858,-3.02983 -2.6352,-4.65969 l -0.19946,-0.46662 -0.55993,0.21173 c -1.13701,0.42967 -1.52694,0.59637 -2.34316,1.00166 l -0.83487,0.41457 0.36729,0.32925 c 1.61398,1.44678 3.86438,2.8235 5.94988,3.63989 0.43204,0.16909 0.79504,0.309 0.80672,0.31081 0.0117,0.002 -0.23655,-0.34983 -0.5513,-0.78146 z m 16.04671,-0.24619 c 0.73996,-0.36254 1.74898,-0.92865 2.24229,-1.25804 0.77775,-0.51936 1.15389,-0.80827 2.33808,-1.79594 l 0.2199,-0.1834 -0.84352,-0.41887 c -0.82539,-0.40984 -2.46815,-1.09563 -2.77064,-1.15661 -0.11682,-0.0234 -0.26488,0.21319 -0.63533,1.01629 -0.26546,0.57587 -0.63527,1.32255 -0.82144,1.65929 -0.36371,0.65779 -1.50946,2.39675 -1.89839,2.88124 l -0.23743,0.29578 0.53055,-0.19012 c 0.29174,-0.10455 1.1359,-0.48688 1.87587,-0.84939 z m -23.29607,-5.90838 c 0.93142,-0.46592 2.59752,-1.17612 3.35717,-1.43107 0.14135,-0.0473 0.1396,-0.094 -0.0263,-0.66114 -0.61202,-2.09411 -1.09502,-4.74126 -1.24919,-6.84658 -0.0558,-0.76304 -0.12032,-1.51851 -0.14339,-1.67883 l -0.0418,-0.29146 h -3.8659 -3.8659 l 0.0602,0.7845 c 0.21494,2.79611 1.54102,6.50066 3.22788,9.0175 0.66675,0.99479 1.20632,1.67848 1.32463,1.67848 0.0441,0 0.5942,-0.25699 1.22246,-0.57137 z m 30.37286,0.17259 c 2.11513,-2.58125 3.89174,-6.99411 4.14564,-10.29731 l 0.0602,-0.7845 h -3.8659 -3.8659 l -0.0444,0.29145 c -0.0234,0.16033 -0.0692,0.71532 -0.0993,1.23327 -0.12792,2.19688 -0.61521,4.94954 -1.28882,7.27938 l -0.1726,0.59736 1.26949,0.50534 c 0.6982,0.27802 1.73362,0.74365 2.3009,1.03486 0.56731,0.29117 1.07706,0.53163 1.13278,0.53417 0.0558,0.003 0.24824,-0.17493 0.42799,-0.39405 z m -22.89043,-2.73539 c 1.28163,-0.27335 3.12307,-0.53312 4.19631,-0.59214 0.51924,-0.0292 1.03486,-0.0704 1.14587,-0.0929 l 0.20179,-0.0409 v -3.81015 -3.81018 h -4.21859 -4.21856 l 0.0453,0.42602 c 0.0263,0.23422 0.0689,0.76911 0.0975,1.18842 0.11331,1.65387 0.51822,3.96093 1.04474,5.95081 l 0.28152,1.06404 0.27744,-0.0488 c 0.15273,-0.0263 0.66853,-0.13229 1.14645,-0.23392 z m 15.48603,-0.78993 c 0.61377,-2.32313 0.87941,-3.96709 1.13047,-6.99593 l 0.0464,-0.56056 h -4.2141 -4.21412 v 3.81018 3.81015 l 0.2018,0.0409 c 0.11097,0.0234 0.6256,0.0645 1.14355,0.0932 1.18579,0.066 3.18163,0.35337 4.35004,0.62651 1.3727,0.32086 1.23395,0.39439 1.55592,-0.82442 z M 224.3555,163.17612 c 0.0234,-0.16033 0.0876,-0.91577 0.14339,-1.67883 0.15419,-2.1053 0.63714,-4.75247 1.24916,-6.84655 0.16588,-0.56737 0.16763,-0.61386 0.0263,-0.66316 -0.97733,-0.34075 -1.83367,-0.70337 -3.10029,-1.31285 l -1.51325,-0.72814 -0.30498,0.35661 c -0.61809,0.72273 -1.59101,2.27555 -2.2219,3.54629 -1.05928,2.13357 -1.83502,4.79522 -1.99173,6.83362 l -0.0602,0.78452 h 3.86591 3.8659 z m 11.08809,-3.51078 c 0,-4.29999 0.0788,-3.91117 -0.79267,-3.91117 -1.01407,0 -3.464,-0.34326 -5.23918,-0.73406 -0.48101,-0.10601 -0.89451,-0.1726 -0.91883,-0.14836 -0.0234,0.0234 -0.20647,0.67943 -0.40439,1.45575 -0.53045,2.07922 -0.8274,3.97612 -1.02292,6.53465 l -0.0464,0.60543 h 4.21211 4.21211 z m 11.07253,3.24173 c -0.12177,-1.46907 -0.24501,-2.60681 -0.36501,-3.3721 -0.31692,-2.01952 -0.97316,-4.6777 -1.15483,-4.6777 -0.061,0 -0.55029,0.0987 -1.08723,0.21961 -1.27971,0.28795 -3.25227,0.5714 -4.42933,0.63655 -0.51798,0.0292 -1.03258,0.0704 -1.14358,0.0929 l -0.2018,0.0409 v 3.81018 3.81018 h 4.21412 4.21413 z m 10.41957,-0.22399 c -0.15595,-2.02814 -0.93951,-4.7167 -1.98901,-6.82412 -0.64043,-1.28596 -1.61374,-2.84161 -2.22538,-3.55675 l -0.30579,-0.35754 -1.51246,0.73067 c -0.83184,0.40187 -1.90233,0.87833 -2.37885,1.05881 l -0.86641,0.32811 0.17317,0.59929 c 0.67423,2.33203 1.16149,5.08366 1.28941,7.2813 0.0301,0.51796 0.0748,1.07294 0.0993,1.23324 l 0.0444,0.29146 h 3.8659 3.8659 z m -21.4921,-13.70671 v -4.17671 l -0.53293,0.29297 c -1.21441,0.66762 -2.45449,1.92662 -3.6104,3.66559 -0.69458,1.04485 -1.90534,3.40594 -1.7993,3.50877 0.17464,0.16938 3.66705,0.7251 5.18024,0.82436 0.24677,0.0175 0.5191,0.0368 0.60542,0.0456 0.14748,0.0146 0.15683,-0.23626 0.15683,-4.16057 z m 5.04982,3.94612 c 1.24318,-0.14105 3.47373,-0.54897 3.58356,-0.6555 0.10601,-0.1028 -1.10475,-2.46392 -1.7993,-3.50877 -1.15591,-1.73897 -2.39599,-2.99797 -3.61039,-3.66559 l -0.53294,-0.29297 v 4.17332 4.17336 l 0.60542,-0.0467 c 0.33298,-0.0263 1.12212,-0.10542 1.75365,-0.17697 z m -13.17216,-2.48947 c 0.74309,-1.61485 1.63897,-3.13432 2.53486,-4.29928 l 0.39737,-0.5167 -0.52172,0.18895 c -0.78228,0.28327 -2.63757,1.18669 -3.46973,1.68937 -0.79048,0.47745 -2.10354,1.43977 -2.77257,2.03194 l -0.413,0.36554 0.77966,0.39107 c 0.78756,0.39501 2.90793,1.26163 2.96096,1.21017 0.0146,-0.0146 0.24268,-0.49284 0.50417,-1.06112 z m 20.79851,0.57549 c 0.38631,-0.15449 1.08293,-0.46997 1.54809,-0.70095 l 0.84577,-0.41998 -0.21991,-0.18339 c -1.18418,-0.98764 -1.56032,-1.27659 -2.33808,-1.79592 -0.91588,-0.61155 -3.17765,-1.77035 -4.10043,-2.10079 l -0.51276,-0.1837 0.57076,0.78246 c 0.99996,1.37079 1.93728,3.02845 2.6335,4.65738 l 0.19946,0.46664 0.33567,-0.12031 c 0.18457,-0.0663 0.65171,-0.24678 1.03802,-0.40135 z"
       id="path370923"
       clip-path="url(#clipPath371594)"
       transform="matrix(0.70688214,0,0,0.70688214,-117.65908,21.64153)" />
    <rect
       style="fill:#2dd9cb;fill-opacity:1;stroke:none;stroke-width:0.262038;stroke-linecap:round;stroke-linejoin:round;stroke-miterlimit:4;stroke-dasharray:none;stroke-opacity:0;paint-order:markers stroke fill"
       id="rect371620"
       width="6.5750976"
       height="22.357624"
       x="88.906212"
       y="128.62654" />
    <rect
       style="fill:#2a2661;fill-opacity:1;stroke:none;stroke-width:0.224808;stroke-linecap:round;stroke-linejoin:round;stroke-miterlimit:4;stroke-dasharray:none;stroke-opacity:0;paint-order:markers stroke fill"
       id="rect371620-1"
       width="6.5750976"
       height="16.456001"
       x="95.4813"
       y="134.52815" />
    <rect
       style="fill:#2dd9cb;fill-opacity:1;stroke:none;stroke-width:0.15209;stroke-linecap:round;stroke-linejoin:round;stroke-miterlimit:4;stroke-dasharray:none;stroke-opacity:0;paint-order:markers stroke fill"
       id="rect371620-2"
       width="6.5750976"
       height="7.5318284"
       x="102.0564"
       y="143.45232" />
    <rect
       style="fill:#85127e;fill-opacity:1;stroke:none;stroke-width:0.283008;stroke-linecap:round;stroke-linejoin:round;stroke-miterlimit:4;stroke-dasharray:none;stroke-opacity:0;paint-order:markers stroke fill"
       id="rect371620-9"
       width="6.5750976"
       height="26.079138"
       x="108.63151"
       y="124.90501" />
    <path
       style="fill:#ffffff;stroke-width:0.0224341"
       d="m 75.382531,143.20221 c -0.933763,-0.11104 -1.639889,-0.39743 -2.288283,-0.92808 -0.208326,-0.17049 -0.553617,-0.53085 -0.708848,-0.73976 -1.023608,-1.37761 -1.100453,-3.20595 -0.196796,-4.68233 0.161268,-0.2635 0.355031,-0.50345 0.615638,-0.76242 l 0.252824,-0.25124 0.0097,-0.91534 c 0.0088,-0.82638 0.01413,-0.93388 0.05577,-1.10604 0.193905,-0.80194 0.706946,-1.45086 1.434582,-1.81454 0.810667,-0.40518 1.8325,-0.34533 2.602203,0.15243 0.695713,0.44992 1.138865,1.18391 1.217887,2.01718 0.01244,0.13169 0.0227,0.56442 0.02276,0.96163 l 2.1e-5,0.72216 0.136131,0.11911 c 0.190801,0.16692 0.496839,0.52813 0.665227,0.78511 0.702018,1.07145 0.875967,2.38694 0.475568,3.59649 -0.515769,1.55808 -1.905577,2.672 -3.539543,2.8369 -0.21866,0.022 -0.604992,0.0265 -0.75478,0.009 z m 0.796911,-0.69062 c 2.007573,-0.26729 3.376627,-2.18491 2.969752,-4.15969 -0.136724,-0.66362 -0.437361,-1.23044 -0.916267,-1.72752 -1.170435,-1.21486 -3.016626,-1.41903 -4.427789,-0.48965 -0.722688,0.47595 -1.245888,1.20584 -1.460207,2.03706 -0.370526,1.43706 0.203088,2.94816 1.431097,3.77003 0.276313,0.18494 0.45437,0.27694 0.742785,0.38381 0.527977,0.19564 1.103697,0.26011 1.660629,0.18596 z m -0.81934,-0.6648 c -1.75919,-0.24225 -2.867504,-2.01739 -2.306846,-3.69477 0.294585,-0.88136 1.047493,-1.59042 1.93668,-1.82391 0.267293,-0.0702 0.438117,-0.0907 0.750963,-0.0903 0.452525,6.2e-4 0.842122,0.0912 1.233496,0.28675 0.804615,0.40198 1.354293,1.13246 1.525832,2.02766 0.04644,0.2422 0.04764,0.73115 0.0028,0.98566 -0.199243,1.12333 -1.057341,2.0123 -2.189194,2.26798 -0.22575,0.051 -0.724716,0.0724 -0.953455,0.0409 z m 0.897364,-0.71424 c 0.09871,-0.0254 0.282528,-0.0971 0.40848,-0.15917 0.586734,-0.28922 0.977314,-0.77153 1.144216,-1.41297 0.07048,-0.27082 0.07859,-0.67893 0.01895,-0.95338 -0.176961,-0.8146 -0.804609,-1.45233 -1.627752,-1.6539 -0.23952,-0.0587 -0.671305,-0.0631 -0.91402,-0.009 -0.655697,0.1449 -1.189937,0.5636 -1.486311,1.16486 -0.168995,0.34283 -0.208842,0.51801 -0.210277,0.92447 -0.0014,0.36984 0.02206,0.50208 0.144975,0.82084 0.148764,0.38574 0.495813,0.79393 0.871699,1.02526 0.212729,0.1309 0.490519,0.23818 0.739074,0.28539 0.23472,0.0445 0.674075,0.0292 0.910951,-0.0319 z m -0.863716,-1.13109 v -0.36633 l -0.117237,-0.0543 c -0.157232,-0.0729 -0.375963,-0.29118 -0.450221,-0.44943 -0.246412,-0.52508 -0.0463,-1.10266 0.470749,-1.35884 0.272397,-0.13496 0.622141,-0.12867 0.906307,0.0163 0.154001,0.0786 0.328997,0.2619 0.413223,0.43291 0.149236,0.30302 0.153089,0.6036 0.01153,0.89966 -0.07992,0.16713 -0.274454,0.36623 -0.439412,0.44968 l -0.121923,0.0617 v 0.36748 0.36749 h -0.336519 -0.336503 z m 0.512658,-1.04117 c 0.152129,-0.11358 0.195977,-0.27436 0.117024,-0.42911 -0.06107,-0.11978 -0.161642,-0.1823 -0.293172,-0.1823 -0.351624,0 -0.465099,0.45744 -0.154672,0.62353 0.11421,0.0612 0.238855,0.0566 0.33082,-0.0122 z m -1.465175,-3.87181 c 0.839274,-0.27006 1.759726,-0.26781 2.587966,0.007 0.217175,0.0719 0.33697,0.12248 0.683398,0.28874 0.01075,0.005 0.01463,-0.27919 0.0088,-0.63841 -0.01201,-0.73273 -0.03082,-0.84717 -0.195608,-1.19193 -0.166471,-0.34824 -0.384877,-0.60239 -0.69717,-0.81129 -0.6717,-0.44928 -1.553473,-0.4471 -2.219984,0.006 -0.253092,0.17186 -0.52978,0.48984 -0.667234,0.76677 -0.174586,0.35173 -0.207307,0.55578 -0.207525,1.29401 l -1.78e-4,0.57611 0.229949,-0.10804 c 0.126475,-0.0595 0.341416,-0.14391 0.477654,-0.18774 z"
       id="path397355" />
    <rect
       style="fill:#85127e;fill-opacity:1;stroke:none;stroke-width:0.195209;stroke-linecap:round;stroke-linejoin:round;stroke-miterlimit:4;stroke-dasharray:none;stroke-opacity:0;paint-order:markers stroke fill"
       id="rect397495"
       width="26.131124"
       height="1.3723145"
       x="141.49371"
       y="124.90501" />
    <rect
       style="fill:#85127e;fill-opacity:1;stroke:none;stroke-width:0.195209;stroke-linecap:round;stroke-linejoin:round;stroke-miterlimit:4;stroke-dasharray:none;stroke-opacity:0;paint-order:markers stroke fill"
       id="rect397495-8"
       width="26.131124"
       height="1.3723145"
       x="141.49371"
       y="127.80598" />
    <rect
       style="fill:#85127e;fill-opacity:1;stroke:none;stroke-width:0.195209;stroke-linecap:round;stroke-linejoin:round;stroke-miterlimit:4;stroke-dasharray:none;stroke-opacity:0;paint-order:markers stroke fill"
       id="rect397495-7"
       width="26.131124"
       height="1.3723145"
       x="141.49371"
       y="130.70697" />
    <rect
       style="fill:#85127e;fill-opacity:1;stroke:none;stroke-width:0.195209;stroke-linecap:round;stroke-linejoin:round;stroke-miterlimit:4;stroke-dasharray:none;stroke-opacity:0;paint-order:markers stroke fill"
       id="rect397495-0"
       width="26.131124"
       height="1.3723145"
       x="141.49371"
       y="133.60797" />
    <rect
       style="fill:#85127e;fill-opacity:1;stroke:none;stroke-width:0.195209;stroke-linecap:round;stroke-linejoin:round;stroke-miterlimit:4;stroke-dasharray:none;stroke-opacity:0;paint-order:markers stroke fill"
       id="rect397495-77"
       width="26.131124"
       height="1.3723145"
       x="141.49371"
       y="136.50894" />
    <rect
       style="fill:#85127e;fill-opacity:1;stroke:none;stroke-width:0.195209;stroke-linecap:round;stroke-linejoin:round;stroke-miterlimit:4;stroke-dasharray:none;stroke-opacity:0;paint-order:markers stroke fill"
       id="rect397495-8-2"
       width="26.131124"
       height="1.3723145"
       x="141.49371"
       y="139.40994" />
    <rect
       style="fill:#85127e;fill-opacity:1;stroke:none;stroke-width:0.195209;stroke-linecap:round;stroke-linejoin:round;stroke-miterlimit:4;stroke-dasharray:none;stroke-opacity:0;paint-order:markers stroke fill"
       id="rect397495-7-4"
       width="26.131124"
       height="1.3723145"
       x="141.49371"
       y="142.31091" />
    <rect
       style="fill:#85127e;fill-opacity:1;stroke:none;stroke-width:0.195209;stroke-linecap:round;stroke-linejoin:round;stroke-miterlimit:4;stroke-dasharray:none;stroke-opacity:0;paint-order:markers stroke fill"
       id="rect397495-0-4"
       width="26.131124"
       height="1.3723145"
       x="141.49371"
       y="145.21191" />
    <rect
       style="fill:#85127e;fill-opacity:1;stroke:none;stroke-width:0.195209;stroke-linecap:round;stroke-linejoin:round;stroke-miterlimit:4;stroke-dasharray:none;stroke-opacity:0;paint-order:markers stroke fill"
       id="rect397495-0-4-4"
       width="26.131124"
       height="1.3723145"
       x="141.49371"
       y="148.1129" />
    <path
       style="fill:#ffffff;stroke-width:0.0206938"
       d="m 363.35511,142.16015 c 0,-0.73016 -0.008,-1.22227 -0.0218,-1.29854 -0.0594,-0.33587 -0.19239,-0.60934 -0.4575,-0.94133 -0.22117,-0.27699 -0.2924,-0.3841 -0.40522,-0.60932 -0.11034,-0.22033 -0.17808,-0.41345 -0.23646,-0.67423 -0.0693,-0.30924 -0.0691,-0.84271 3.9e-4,-1.15551 0.12243,-0.55148 0.37505,-1.0147 0.76867,-1.4095 0.51108,-0.51261 1.15063,-0.79093 1.88321,-0.81955 0.49747,-0.0194 0.88861,0.0628 1.33559,0.28096 0.6771,0.33043 1.2017,0.92542 1.43533,1.62797 0.2287,0.6877 0.18498,1.44716 -0.12016,2.08777 -0.12513,0.26269 -0.19957,0.37766 -0.43539,0.67255 -0.2053,0.25671 -0.33852,0.50057 -0.41827,0.76567 -0.0457,0.15237 -0.0468,0.17801 -0.0539,1.40202 l -0.007,1.24679 h -1.63377 -1.63377 z m 2.6488,0.14106 v -0.41388 h -1.014 -1.01399 v 0.41388 0.41388 h 1.01399 1.014 z m -1.3244,-2.1932 v -1.1585 l -0.10753,-0.0545 c -0.13738,-0.0697 -0.32597,-0.24925 -0.39436,-0.37563 -0.13126,-0.24251 -0.15315,-0.5467 -0.0572,-0.79364 0.0962,-0.2474 0.34431,-0.47518 0.59944,-0.55031 0.22799,-0.0672 0.52606,-0.0333 0.72524,0.0822 0.0966,0.0559 0.23784,0.19115 0.31351,0.29986 0.18262,0.26237 0.20097,0.64882 0.0447,0.94174 -0.0761,0.14272 -0.26043,0.32343 -0.39496,0.38732 l -0.10812,0.0513 v 1.1643 1.16433 h 0.34871 0.34869 l 0.0129,-0.22246 c 0.0352,-0.6067 0.2128,-1.02357 0.68203,-1.60158 0.24199,-0.2981 0.41585,-0.69358 0.47114,-1.07174 0.0335,-0.22918 0.0146,-0.6256 -0.0398,-0.83321 -0.2131,-0.81332 -0.79947,-1.40149 -1.60637,-1.61131 -0.21429,-0.0558 -0.60787,-0.0751 -0.83946,-0.0411 -0.70762,0.10348 -1.32533,0.54716 -1.64361,1.18059 -0.18151,0.36128 -0.25146,0.69422 -0.23216,1.10527 0.0226,0.48109 0.18392,0.90343 0.48558,1.27113 0.46303,0.56441 0.64911,1.00148 0.68198,1.60199 l 0.0122,0.22247 h 0.34869 0.3487 z m 0.49176,-1.79722 c 0.0817,-0.0582 0.13899,-0.20269 0.12015,-0.3031 -0.0285,-0.15199 -0.20501,-0.27944 -0.34754,-0.25095 -0.28857,0.0577 -0.36064,0.41805 -0.11453,0.5726 0.088,0.0554 0.25064,0.0464 0.34192,-0.0185 z m -4.63727,2.62073 c -0.12604,-0.20057 -0.27895,-0.48398 -0.26676,-0.49443 0.0311,-0.0268 1.3907,-0.80537 1.40595,-0.80522 0.0159,1.6e-4 0.32292,0.51896 0.31166,0.52671 -0.003,0.002 -0.2899,0.16756 -0.63705,0.36738 -0.34713,0.19985 -0.66548,0.38359 -0.70745,0.40837 l -0.0763,0.045 z m 8.15686,-0.38293 -0.69651,-0.40385 0.15281,-0.26169 c 0.0841,-0.14392 0.16267,-0.25923 0.17478,-0.25625 0.0184,0.004 1.38123,0.78447 1.40404,0.80349 0.0155,0.013 -0.29296,0.52575 -0.31528,0.52399 -0.0128,-0.002 -0.33677,-0.18357 -0.71984,-0.40569 z m -8.99856,-2.48961 v -0.3104 h 0.82775 0.82775 v 0.3104 0.3104 h -0.82775 -0.82775 z m 8.93972,0 v -0.3104 h 0.82776 0.82776 v 0.3104 0.3104 h -0.82776 -0.82776 z m -7.65671,-1.95649 c -0.38128,-0.22095 -0.702,-0.40483 -0.7127,-0.40864 -0.0223,-0.008 0.27402,-0.532 0.30084,-0.532 0.01,0 0.3336,0.1823 0.71976,0.40509 l 0.7021,0.4051 -0.14439,0.25193 c -0.0794,0.13856 -0.15068,0.25829 -0.15837,0.26607 -0.007,0.007 -0.32596,-0.16662 -0.70724,-0.38755 z m 7.16403,0.12204 c -0.0823,-0.14393 -0.14712,-0.26333 -0.14405,-0.26532 0.0643,-0.0414 1.39619,-0.80143 1.40929,-0.80402 0.0175,-0.003 0.0986,0.1232 0.25813,0.40282 l 0.0666,0.11681 -0.70296,0.40572 c -0.38663,0.22313 -0.71073,0.40571 -0.7202,0.40571 -0.009,0 -0.0846,-0.11777 -0.16685,-0.26172 z m -5.65162,-1.86861 c -0.22098,-0.38544 -0.40146,-0.70865 -0.40106,-0.71827 0.002,-0.0259 0.51096,-0.3176 0.52595,-0.30085 0.0251,0.0281 0.80458,1.3901 0.80458,1.40592 0,0.0132 -0.50531,0.31762 -0.52252,0.31482 -0.002,-4.8e-4 -0.18598,-0.3162 -0.40695,-0.70162 z m 4.32325,0.54511 c -0.14227,-0.0836 -0.25645,-0.16126 -0.25371,-0.17256 0.004,-0.0166 0.78395,-1.37965 0.80421,-1.40545 0.0103,-0.0133 0.52558,0.2893 0.52558,0.30862 0,0.0177 -0.77956,1.38135 -0.80526,1.40856 -0.007,0.007 -0.12854,-0.0555 -0.27082,-0.13917 z m -2.13146,-1.31191 v -0.82776 h 0.3104 0.31041 v 0.82776 0.82775 h -0.31041 -0.3104 z"
       id="path402147" />
    <path
       style="fill:#85127e;fill-opacity:1;stroke-width:0.021301"
       d="m 311.08029,143.65149 v -0.43585 l -0.0903,-0.0243 c -0.13456,-0.0362 -0.48418,-0.17881 -0.68044,-0.27749 l -0.17299,-0.087 -0.30577,0.30524 -0.30579,0.30523 -0.95295,-0.95295 -0.95294,-0.95294 0.30523,-0.30578 0.30525,-0.30579 -0.087,-0.17298 c -0.0987,-0.19625 -0.24125,-0.54588 -0.2775,-0.68043 l -0.0243,-0.0903 h -0.43585 -0.43585 v -1.34196 -1.34198 h 0.43275 0.43275 l 0.0699,-0.20768 c 0.0383,-0.11422 0.12673,-0.32709 0.19628,-0.47303 l 0.12645,-0.26535 -0.30404,-0.30458 -0.30402,-0.30457 0.95294,-0.95296 0.95295,-0.95294 0.30577,0.30524 0.30579,0.30523 0.17299,-0.087 c 0.19626,-0.0987 0.54588,-0.24126 0.68044,-0.27749 l 0.0903,-0.0243 v -0.43584 -0.43586 h 1.34197 1.34197 v 0.43275 0.43276 l 0.20769,0.0699 c 0.11422,0.0384 0.32709,0.12673 0.47303,0.19628 l 0.26535,0.12645 0.29939,-0.29886 c 0.16467,-0.16437 0.30749,-0.29886 0.31738,-0.29886 0.0261,0 1.88793,1.85793 1.88793,1.88399 0,0.0121 -0.13503,0.15719 -0.30007,0.32252 l -0.30005,0.3006 0.087,0.17298 c 0.0987,0.19626 0.24128,0.54588 0.27751,0.68044 l 0.0243,0.0903 h 0.43585 0.43584 v 1.34197 1.34197 h -0.43584 -0.43585 l -0.0243,0.0903 c -0.0362,0.13456 -0.17882,0.48419 -0.27751,0.68044 l -0.087,0.17298 0.30005,0.30061 c 0.16504,0.16533 0.30007,0.31047 0.30007,0.32252 0,0.0261 -1.86182,1.88398 -1.88793,1.88398 -0.01,0 -0.15271,-0.13447 -0.31738,-0.29886 l -0.29939,-0.29886 -0.26535,0.12645 c -0.14594,0.0696 -0.35881,0.15787 -0.47303,0.19628 l -0.20769,0.0699 v 0.43274 0.43276 h -1.34197 -1.34197 z m 1.66148,-5.01722 v -1.91711 h -0.31951 -0.31951 v 1.91711 1.91709 h 0.31951 0.31951 z m -1.52101,1.71225 c 0.12777,-0.10095 0.23583,-0.18677 0.24017,-0.1907 0.004,-0.004 -0.25688,-0.34366 -0.58046,-0.75495 -0.32358,-0.41127 -0.58832,-0.75625 -0.58832,-0.7666 0,-0.0104 0.26474,-0.35533 0.58832,-0.76662 0.32358,-0.41129 0.58478,-0.751 0.58046,-0.75494 -0.0651,-0.0591 -0.47698,-0.37424 -0.48928,-0.37424 -0.009,0 -0.35271,0.42655 -0.76327,0.94789 l -0.74648,0.94791 0.74648,0.94789 c 0.41056,0.52134 0.75402,0.94791 0.76327,0.94791 0.009,0 0.12135,-0.0827 0.24911,-0.18355 z m 3.41539,-0.76436 0.74647,-0.94789 -0.74647,-0.94791 c -0.41057,-0.52134 -0.75357,-0.94789 -0.76224,-0.94789 -0.0114,0 -0.35686,0.26407 -0.49031,0.37487 -0.004,0.003 0.25742,0.34372 0.58165,0.75585 0.35287,0.44851 0.58493,0.76134 0.57807,0.77924 -0.007,0.0165 -0.2714,0.36055 -0.58906,0.76468 l -0.5776,0.73479 0.0594,0.0472 c 0.27748,0.2208 0.42629,0.33425 0.43878,0.33453 0.008,1.6e-4 0.35071,-0.42622 0.76128,-0.94756 z"
       id="path402277" />
    <circle
       style="fill:#ffffff;fill-opacity:1;stroke:none;stroke-width:0.404101;stroke-linecap:round;stroke-linejoin:round;stroke-miterlimit:4;stroke-dasharray:none;stroke-opacity:0;paint-order:markers stroke fill"
       id="path405677"
       cx="338.56888"
       cy="137.98389"
       r="13.057091" />
    <circle
       style="fill:#2a2661;fill-opacity:1;stroke:none;stroke-width:0.301095;stroke-linecap:round;stroke-linejoin:round;stroke-miterlimit:4;stroke-dasharray:none;stroke-opacity:0;paint-order:markers stroke fill"
       id="path405677-5"
       cx="338.56888"
       cy="137.98389"
       r="9.7288132" />
    <circle
       style="fill:#ffffff;fill-opacity:1;stroke:none;stroke-width:0.215068;stroke-linecap:round;stroke-linejoin:round;stroke-miterlimit:4;stroke-dasharray:none;stroke-opacity:0;paint-order:markers stroke fill"
       id="path405677-5-3"
       cx="338.56888"
       cy="137.98389"
       r="6.9491525" />
    <circle
       style="fill:#2dd9cb;fill-opacity:1;stroke:none;stroke-width:0.12733;stroke-linecap:round;stroke-linejoin:round;stroke-miterlimit:4;stroke-dasharray:none;stroke-opacity:0;paint-order:markers stroke fill"
       id="path405677-5-3-0"
       cx="338.56888"
       cy="137.98389"
       r="4.1141748" />
    <rect
       style="fill:#2a2661;fill-opacity:1;stroke:none;stroke-width:0.346372;stroke-linecap:round;stroke-linejoin:round;stroke-miterlimit:4;stroke-dasharray:none;stroke-opacity:0;paint-order:markers stroke fill"
       id="rect422316"
       width="26.287092"
       height="26.079138"
       x="115.20661"
       y="124.90501" />
    <path
       style="fill:#ffffff;fill-opacity:1;stroke:none;stroke-width:0.187214px;stroke-linecap:butt;stroke-linejoin:miter;stroke-opacity:1"
       d="m 115.20662,124.90501 13.10445,13.16543 -13.10445,13.12169 v -26.2871"
       id="path439810" />
    <path
       style="fill:#ffffff;fill-opacity:1;stroke:none;stroke-width:0.187214px;stroke-linecap:butt;stroke-linejoin:miter;stroke-opacity:1"
       d="m 141.44275,151.20879 -13.13168,-13.13835 13.07726,-13.1487 0.0543,26.28703"
       id="path439810-2" />
    <path
       style="fill:#ffffff;stroke-width:0.031601"
       d="m 230.77366,143.24985 c -0.88213,-0.36171 -1.73385,-1.02187 -2.31418,-1.79373 -1.34056,-1.78293 -1.49902,-4.20318 -0.40097,-6.1244 1.22836,-2.14925 3.68544,-3.23841 6.08937,-2.69924 1.04735,0.2349 1.9833,0.75223 2.74225,1.51576 1.95626,1.96799 2.1675,5.08403 0.49542,7.30788 -0.58695,0.78066 -1.47162,1.46282 -2.34194,1.80587 l -0.15219,0.06 -0.63968,-1.70652 c -0.35182,-0.93858 -0.63485,-1.71038 -0.62894,-1.71515 0.006,-0.006 0.10316,-0.0567 0.21613,-0.11569 0.26527,-0.13831 0.64481,-0.51497 0.78322,-0.77723 0.28688,-0.54362 0.30083,-1.22397 0.036,-1.75782 -0.27097,-0.54629 -0.7543,-0.92401 -1.34156,-1.0484 -1.19109,-0.25233 -2.31891,0.66242 -2.32129,1.88272 -3e-4,0.29588 0.0897,0.66232 0.22754,0.9235 0.13841,0.26226 0.51797,0.63892 0.78322,0.77723 0.11293,0.0589 0.21026,0.111 0.21619,0.11582 0.008,0.007 -1.25176,3.39764 -1.26973,3.41565 -0.003,0.002 -0.0833,-0.027 -0.17889,-0.0662 z"
       id="path442474-1" />
    <path
       style="fill:none;stroke:#ffffff;stroke-width:2.0959;stroke-linecap:butt;stroke-linejoin:miter;stroke-miterlimit:4;stroke-dasharray:none;stroke-opacity:1"
       d="m 382.55686,136.28406 4.29311,-4.2931 4.29311,4.2931 4.2931,-4.2931 4.29312,4.2931"
       id="path444031" />
    <path
       style="fill:none;stroke:#ffffff;stroke-width:2.0959;stroke-linecap:butt;stroke-linejoin:miter;stroke-miterlimit:4;stroke-dasharray:none;stroke-opacity:1"
       d="m 382.55686,143.96509 4.29311,-4.29311 4.29311,4.29311 4.2931,-4.29311 4.29312,4.29311"
       id="path444031-0" />
    <g
       id="g447497"
       transform="matrix(0.44515585,0,0,0.44515585,109.34843,73.907099)">
      <rect
         style="fill:#2a2661;fill-opacity:1;stroke:none;stroke-width:0.604806;stroke-linecap:round;stroke-linejoin:round;stroke-miterlimit:4;stroke-dasharray:none;stroke-opacity:1;paint-order:markers stroke fill"
         id="rect446806"
         width="27.632715"
         height="22.937311"
         x="147.33226"
         y="128.28696" />
      <path
         style="fill:#ffffff;fill-opacity:1;stroke-width:0.0559685"
         d="m 146.39724,139.65111 v -11.89332 h 14.32795 14.32794 v 11.89332 11.8933 h -14.32794 -14.32795 z m 27.31265,3.41408 v -6.80018 h -12.8168 -12.81679 v 6.80018 6.80017 h 12.81679 12.8168 z m 0,-11.05392 v -2.57467 l -12.8028,0.0142 -12.80281,0.0141 -0.0146,2.4906 c -0.008,1.36983 -0.003,2.52208 0.0122,2.56056 0.0214,0.0557 2.63657,0.0699 12.8174,0.0699 h 12.79057 z"
         id="path444498"
         sodipodi:nodetypes="ccccccccccccccccccccccccscc" />
      <circle
         style="opacity:1;fill:#ffffff;fill-opacity:1;stroke:none;stroke-width:2.965;stroke-linecap:round;stroke-linejoin:round;stroke-miterlimit:4;stroke-dasharray:none;stroke-opacity:1;paint-order:markers stroke fill"
         id="path447373"
         cx="150.33955"
         cy="132.08856"
         r="0.84148049" />
      <circle
         style="fill:#ffffff;fill-opacity:1;stroke:none;stroke-width:2.965;stroke-linecap:round;stroke-linejoin:round;stroke-miterlimit:4;stroke-dasharray:none;stroke-opacity:1;paint-order:markers stroke fill"
         id="path447373-9"
         cx="152.71898"
         cy="132.08856"
         r="0.84148049" />
      <circle
         style="fill:#ffffff;fill-opacity:1;stroke:none;stroke-width:2.965;stroke-linecap:round;stroke-linejoin:round;stroke-miterlimit:4;stroke-dasharray:none;stroke-opacity:1;paint-order:markers stroke fill"
         id="path447373-1"
         cx="155.09843"
         cy="132.08856"
         r="0.84148049" />
    </g>
  </g>
</svg>
